<svg width="33" height="32" viewBox="0 0 33 32" fill="none" xmlns="http://www.w3.org/2000/svg">
<g id="coin-hand-filled">
<g id="Icon">
<path d="M13.85 11.9821C13.7319 11.4947 13.6693 10.9857 13.6693 10.462C13.6693 8.09566 14.9474 6.02782 16.851 4.91119C16.042 3.84267 14.7597 3.15234 13.3162 3.15234C10.8691 3.15234 8.88542 5.13607 8.88542 7.58311C8.88542 10.0302 10.8691 12.0139 13.3162 12.0139C13.4968 12.0139 13.675 12.0031 13.85 11.9821Z" fill="url(#paint0_linear_1550_11180)"/>
<path d="M24.5304 10.4619C24.5304 12.9089 22.5467 14.8926 20.0996 14.8926C17.6526 14.8926 15.6689 12.9089 15.6689 10.4619C15.6689 8.01482 17.6526 6.03109 20.0996 6.03109C22.5467 6.03109 24.5304 8.01482 24.5304 10.4619Z" fill="url(#paint1_linear_1550_11180)"/>
<path d="M3.48438 19.3232C3.48438 18.7114 3.94045 18.2155 4.50304 18.2155H8.57769C9.14028 18.2155 9.59635 18.7114 9.59635 19.3232V20.3624L11.5079 19.8287C11.9206 19.7135 12.3216 19.5617 12.7226 19.41C12.8793 19.3507 13.036 19.2914 13.1934 19.2343C14.0392 18.9274 14.9341 18.7692 15.8384 18.7692H16.2927C16.9818 18.7692 17.6679 18.8611 18.3328 19.0424L20.6611 19.6774C21.729 19.9687 22.1783 21.1666 21.6892 22.0679C21.537 22.3484 21.2402 22.5059 20.9362 22.603L19.7778 22.9728C19.3427 23.1117 19.4427 23.7538 19.8994 23.7538H20.9392C21.8205 23.7538 22.6658 23.4037 23.289 22.7805L25.9055 20.7111C26.6404 19.9762 27.5609 19.8542 28.4257 20.4307C29.4361 21.1043 29.5044 22.3544 28.7401 23.298C27.5399 24.7798 25.7028 26.7887 23.9772 27.6307C22.2632 28.4672 21.4289 28.5357 19.8145 28.6683C19.5617 28.689 19.2899 28.7114 18.9926 28.7384C17.6876 28.8573 15.8405 28.6182 14.0781 28.39C12.2687 28.1557 10.5486 27.933 9.59635 28.1212V29.2924C9.59635 29.9042 9.14028 30.4001 8.57769 30.4001H4.50304C3.94045 30.4001 3.48438 29.9042 3.48438 29.2924V19.3232Z" fill="url(#paint2_linear_1550_11180)"/>
</g>
</g>
<defs>
<linearGradient id="paint0_linear_1550_11180" x1="1.87892" y1="30.4001" x2="35.2432" y2="29.708" gradientUnits="userSpaceOnUse">
<stop stop-color="#42A4C5"/>
<stop offset="1" stop-color="#192ED7"/>
</linearGradient>
<linearGradient id="paint1_linear_1550_11180" x1="1.87892" y1="30.4001" x2="35.2432" y2="29.708" gradientUnits="userSpaceOnUse">
<stop stop-color="#42A4C5"/>
<stop offset="1" stop-color="#192ED7"/>
</linearGradient>
<linearGradient id="paint2_linear_1550_11180" x1="1.87892" y1="30.4001" x2="35.2432" y2="29.708" gradientUnits="userSpaceOnUse">
<stop stop-color="#42A4C5"/>
<stop offset="1" stop-color="#192ED7"/>
</linearGradient>
</defs>
</svg>
