<svg width="32" height="32" viewBox="0 0 32 32" fill="none" xmlns="http://www.w3.org/2000/svg">
<g id="coins-rotate-filled">
<g id="Icon">
<path fill-rule="evenodd" clip-rule="evenodd" d="M7.85693 0.657614C8.37763 0.136915 9.22185 0.136915 9.74255 0.657614L12.9425 3.85761C13.1926 4.10766 13.3331 4.4468 13.3331 4.80042C13.3331 5.15405 13.1926 5.49318 12.9425 5.74323L9.74255 8.94323C9.22185 9.46393 8.37763 9.46393 7.85693 8.94323C7.33623 8.42253 7.33623 7.57831 7.85693 7.05761L8.78079 6.13376H6.66641C5.04637 6.13376 3.73307 7.44705 3.73307 9.06709V11.2004C3.73307 11.9368 3.13612 12.5338 2.39974 12.5338C1.66336 12.5338 1.06641 11.9368 1.06641 11.2004V9.06709C1.06641 5.97429 3.57361 3.46709 6.66641 3.46709H8.78079L7.85693 2.54323C7.33623 2.02253 7.33623 1.17831 7.85693 0.657614ZM29.5997 19.4671C30.3361 19.4671 30.9331 20.064 30.9331 20.8004V22.9338C30.9331 26.0266 28.4259 28.5338 25.3331 28.5338H23.2187L24.1426 29.4576C24.6632 29.9783 24.6632 30.8225 24.1425 31.3432C23.6218 31.8639 22.7776 31.8639 22.2569 31.3432L19.0569 28.1432C18.8069 27.8932 18.6664 27.554 18.6664 27.2004C18.6664 26.8468 18.8069 26.5077 19.0569 26.2576L22.2569 23.0576C22.7776 22.5369 23.6219 22.5369 24.1426 23.0576C24.6632 23.5783 24.6632 24.4225 24.1425 24.9432L23.2187 25.8671H25.3331C26.9531 25.8671 28.2664 24.5538 28.2664 22.9338V20.8004C28.2664 20.064 28.8634 19.4671 29.5997 19.4671Z" fill="url(#paint0_linear_1550_11168)"/>
<path d="M2.66641 20.6671C2.66641 16.617 5.94965 13.3338 9.99974 13.3338C10.1885 13.3338 10.3755 13.3409 10.5604 13.3548C10.6819 13.364 10.7788 13.458 10.7993 13.5782C11.3865 17.0274 13.8651 19.83 17.1305 20.884C17.2462 20.9214 17.3252 21.0308 17.3173 21.1521C17.0676 24.9761 13.8869 28.0004 9.99974 28.0004C5.94965 28.0004 2.66641 24.7172 2.66641 20.6671Z" fill="url(#paint1_linear_1550_11168)"/>
<path d="M13.3331 11.3338C13.3331 7.28367 16.6163 4.00042 20.6664 4.00042C24.7165 4.00042 27.9997 7.28367 27.9997 11.3338C27.9997 15.3838 24.7165 18.6671 20.6664 18.6671C16.6163 18.6671 13.3331 15.3838 13.3331 11.3338Z" fill="url(#paint2_linear_1550_11168)"/>
</g>
</g>
<defs>
<linearGradient id="paint0_linear_1550_11168" x1="-0.794141" y1="31.7338" x2="37.8714" y2="30.9289" gradientUnits="userSpaceOnUse">
<stop stop-color="#42A4C5"/>
<stop offset="1" stop-color="#192ED7"/>
</linearGradient>
<linearGradient id="paint1_linear_1550_11168" x1="-0.794141" y1="31.7338" x2="37.8714" y2="30.9289" gradientUnits="userSpaceOnUse">
<stop stop-color="#42A4C5"/>
<stop offset="1" stop-color="#192ED7"/>
</linearGradient>
<linearGradient id="paint2_linear_1550_11168" x1="-0.794141" y1="31.7338" x2="37.8714" y2="30.9289" gradientUnits="userSpaceOnUse">
<stop stop-color="#42A4C5"/>
<stop offset="1" stop-color="#192ED7"/>
</linearGradient>
</defs>
</svg>
