<svg width="33" height="32" viewBox="0 0 33 32" fill="none" xmlns="http://www.w3.org/2000/svg">
<g id="lightbulb-02-filled">
<g id="Icon">
<path d="M7.33301 11.9816C7.33301 6.83701 11.5117 2.6665 16.6663 2.6665C21.821 2.6665 25.9997 6.83701 25.9997 11.9816C25.9997 15.4649 24.1702 18.4247 21.333 19.9998V21.9998C21.333 23.7147 19.9401 25.1049 18.2219 25.1049H15.1108C13.3926 25.1049 11.9997 23.7147 11.9997 21.9998V19.9998C9.17874 18.3974 7.33301 15.4528 7.33301 11.9816Z" fill="url(#paint0_linear_1550_11174)"/>
<path d="M13.9997 26.6665C13.2633 26.6665 12.6663 27.2635 12.6663 27.9998C12.6663 28.7362 13.2633 29.3332 13.9997 29.3332H19.333C20.0694 29.3332 20.6663 28.7362 20.6663 27.9998C20.6663 27.2635 20.0694 26.6665 19.333 26.6665H13.9997Z" fill="url(#paint1_linear_1550_11174)"/>
</g>
</g>
<defs>
<linearGradient id="paint0_linear_1550_11174" x1="6.17017" y1="29.3332" x2="30.3409" y2="28.9621" gradientUnits="userSpaceOnUse">
<stop stop-color="#42A4C5"/>
<stop offset="1" stop-color="#192ED7"/>
</linearGradient>
<linearGradient id="paint1_linear_1550_11174" x1="6.17017" y1="29.3332" x2="30.3409" y2="28.9621" gradientUnits="userSpaceOnUse">
<stop stop-color="#42A4C5"/>
<stop offset="1" stop-color="#192ED7"/>
</linearGradient>
</defs>
</svg>
