<svg width="44" height="44" viewBox="0 0 44 44" fill="none" xmlns="http://www.w3.org/2000/svg">
<g id="icons">
<path id="Vector" d="M7.33333 18.333L18.5307 26.7887L18.5344 26.7918C19.7777 27.7036 20.3997 28.1597 21.0811 28.3359C21.6833 28.4917 22.3163 28.4917 22.9185 28.3359C23.6004 28.1596 24.2242 27.7021 25.4697 26.7887L36.6667 18.333M36.3003 16.572L26.0355 8.35339C24.7609 7.33292 24.1231 6.82286 23.4144 6.62031C22.789 6.4416 22.1269 6.43213 21.4968 6.59346C20.7827 6.7763 20.1316 7.26835 18.8293 8.25313L7.82747 16.5724C6.97363 17.218 6.54725 17.5411 6.23942 17.9491C5.96677 18.3105 5.76358 18.7192 5.63978 19.1547C5.5 19.6463 5.5 20.1816 5.5 21.2521V32.6332C5.5 34.6867 5.5 35.714 5.89964 36.4983C6.25118 37.1882 6.8117 37.7488 7.50163 38.1003C8.2852 38.4995 9.31149 38.4995 11.361 38.4995H32.639C34.6885 38.4995 35.7133 38.4995 36.4969 38.1003C37.1868 37.7488 37.7492 37.1878 38.1007 36.4979C38.5 35.7143 38.5 34.6889 38.5 32.6394V21.1315C38.5 20.1101 38.5 19.5962 38.3693 19.1215C38.2527 18.6982 38.0591 18.2993 37.8016 17.9437C37.5108 17.5424 37.1082 17.2188 36.3003 16.572Z" stroke="white" stroke-width="3" stroke-linecap="round" stroke-linejoin="round"/>
</g>
</svg>
