<svg width="44" height="44" viewBox="0 0 44 44" fill="none" xmlns="http://www.w3.org/2000/svg">
<g id="icons">
<path id="Vector" d="M3.66602 36.6673H7.33268M7.33268 36.6673H21.9993M7.33268 36.6673V13.201C7.33268 11.1475 7.33268 10.12 7.73233 9.33561C8.08386 8.64568 8.64438 8.08516 9.33431 7.73363C10.1187 7.33398 11.1462 7.33398 13.1997 7.33398H16.133C18.1866 7.33398 19.2128 7.33398 19.9971 7.73363C20.6871 8.08516 21.2486 8.64568 21.6001 9.33561C21.9993 10.1192 21.9993 11.1455 21.9993 13.195V18.7851M21.9993 36.6673H36.666M21.9993 36.6673V18.7851M36.666 36.6673H40.3327M36.666 36.6673V26.3423C36.666 25.3794 36.666 24.8972 36.5505 24.4481C36.4482 24.05 36.279 23.6724 36.0513 23.3301C35.7943 22.944 35.4367 22.6218 34.7202 21.9781L30.5036 18.1899C29.1176 16.9447 28.4243 16.3224 27.6408 16.0862C26.9506 15.8781 26.2143 15.8781 25.5241 16.0862C24.7407 16.3223 24.0477 16.945 22.662 18.1899L21.9993 18.7851" stroke="white" stroke-width="3" stroke-linecap="round" stroke-linejoin="round"/>
</g>
</svg>
