<svg width="44" height="44" viewBox="0 0 44 44" fill="none" xmlns="http://www.w3.org/2000/svg">
<g id="icons">
<path id="Vector" d="M17.4212 7.8049C16.8643 6.41282 15.5161 5.5 14.0168 5.5H8.97368C7.05522 5.5 5.5 7.05484 5.5 8.97331C5.5 25.2802 18.7198 38.5 35.0267 38.5C36.9452 38.5 38.5 36.9446 38.5 35.0262L38.5008 29.9823C38.5008 28.4829 37.5883 27.1349 36.1962 26.5781L31.3627 24.6454C30.1122 24.1452 28.6885 24.3703 27.6539 25.2325L26.4064 26.2729C24.9496 27.487 22.806 27.3904 21.465 26.0494L17.9524 22.5336C16.6114 21.1926 16.5123 19.0508 17.7264 17.5939L18.7666 16.3465C19.6288 15.3119 19.8559 13.8878 19.3557 12.6373L17.4212 7.8049Z" stroke="white" stroke-width="3" stroke-linecap="round" stroke-linejoin="round"/>
</g>
</svg>
