<svg width="241" height="48" viewBox="0 0 241 48" fill="none" xmlns="http://www.w3.org/2000/svg">
<g id="logo 1" clip-path="url(#clip0_1692_20002)">
<path id="Vector" d="M5.44004 23.7641C5.43906 21.5336 5.8429 19.3218 6.63262 17.2339L2.51578 14.8711C-0.0722668 21.0741 0.165921 28.0859 3.16925 34.1013L7.25014 31.7612C6.05299 29.2634 5.43449 26.5307 5.44004 23.7641Z" fill="#ED1C24"/>
<path id="Vector_2" d="M63.3018 22.7886C63.3018 15.763 66.6192 12.2501 73.2541 12.2501C74.676 12.2455 76.0911 12.4445 77.4559 12.8408C78.8064 13.2367 79.4816 13.73 79.4816 14.3208C79.4816 14.7535 79.2486 15.3258 78.7824 16.0378C78.3163 16.7496 77.9035 17.1044 77.5441 17.1023C77.3277 17.0465 77.1187 16.9669 76.92 16.8654C75.735 16.3616 74.4541 16.1192 73.1659 16.1545C69.7286 16.1545 68.01 18.3898 68.01 22.86C68.01 27.3302 69.709 29.5655 73.107 29.5655C74.5267 29.5674 75.93 29.2639 77.2206 28.6762C77.466 28.5476 77.726 28.4483 77.9949 28.3808C78.4131 28.3808 78.8107 28.7215 79.1875 29.4031C79.4924 29.8718 79.6857 30.4038 79.7528 30.9578C79.7528 31.7476 79.0176 32.3599 77.5473 32.7948C76.1067 33.2236 74.6109 33.4423 73.107 33.444C69.77 33.444 67.3021 32.5784 65.7032 30.8474C64.1044 29.1164 63.3039 26.4301 63.3018 22.7886Z" fill="white"/>
<path id="Vector_3" d="M82.2549 32.3214V22.9383C82.2837 21.8987 82.2236 20.8585 82.0753 19.8291C81.9936 19.4782 81.9338 19.1225 81.8955 18.7644C81.8955 18.4486 82.2985 18.2116 83.1044 18.0537C83.6974 17.9219 84.3009 17.8427 84.908 17.8168C85.1773 17.7934 85.4481 17.8336 85.6987 17.9335C85.8424 18.0215 85.9562 18.1504 86.0254 18.3036C86.1038 18.4723 86.1659 18.6087 86.2051 18.7191C86.2627 18.8985 86.3074 19.0818 86.3391 19.2676C86.3881 19.5239 86.4241 19.683 86.4436 19.7413C87.2779 18.2419 88.3605 17.4922 89.6913 17.4922C90.3274 17.4922 90.7696 17.6544 91.0179 17.979C91.2633 18.2974 91.3946 18.6882 91.3904 19.089C91.3718 19.6168 91.2819 20.1396 91.1224 20.6436C90.9439 21.2646 90.7259 21.5752 90.469 21.5752C90.2563 21.5592 90.0459 21.5203 89.8417 21.4583C89.5898 21.3859 89.3294 21.3454 89.0673 21.3382C88.0741 21.3382 87.28 21.8316 86.6854 22.8183V32.3182C86.6854 32.95 86.0896 33.2658 84.8982 33.2658H84.065C82.8583 33.2658 82.2549 32.9511 82.2549 32.3214Z" fill="white"/>
<path id="Vector_4" d="M91.6084 18.3165C91.6084 17.8837 92.2139 17.6673 93.4251 17.6673H94.3791C95.3528 17.6673 95.9093 17.875 96.0486 18.2905L97.8065 23.7626C97.9851 24.3143 98.2629 25.5044 98.6397 27.3328H98.7573C99.1559 25.4373 99.4336 24.2473 99.5904 23.7626L101.348 18.2872C101.488 17.8739 102.044 17.6662 103.018 17.6641H103.733C104.925 17.6641 105.521 17.8804 105.521 18.3133C105.514 18.4936 105.484 18.6725 105.432 18.8455L98.6103 38.6924C98.4513 39.1057 97.8947 39.3134 96.9407 39.3155H96.4342C95.2427 39.3155 94.647 39.1078 94.647 38.6924C94.648 38.5087 94.6878 38.3273 94.7646 38.1602L96.6498 33.2041L91.7489 18.8487C91.6839 18.6767 91.6365 18.4982 91.6084 18.3165Z" fill="white"/>
<path id="Vector_5" d="M107.73 38.3672V22.9344C107.759 21.8948 107.698 20.8546 107.55 19.8251C107.468 19.4742 107.408 19.1188 107.37 18.7604C107.37 18.4446 107.772 18.2076 108.576 18.0497C109.169 17.9179 109.772 17.8387 110.379 17.8128C110.649 17.7894 110.919 17.8296 111.17 17.9296C111.313 18.0179 111.427 18.1468 111.497 18.2996C111.564 18.4392 111.624 18.582 111.676 18.728C111.73 18.903 111.775 19.0805 111.81 19.2604C111.861 19.4962 111.895 19.6444 111.915 19.705C112.289 19.0374 112.841 18.4849 113.509 18.1081C114.237 17.6872 115.066 17.4716 115.908 17.485C117.557 17.485 118.897 18.1903 119.93 19.6012C120.962 21.0119 121.478 22.9592 121.478 25.4432C121.478 27.9206 120.927 29.8746 119.825 31.3048C118.723 32.735 117.179 33.4501 115.192 33.4501C114.106 33.4762 113.04 33.1542 112.153 32.5316V38.3737C112.153 39.0055 111.558 39.3215 110.366 39.3215H109.533C108.331 39.3085 107.73 38.9904 107.73 38.3672ZM114.225 29.9903C116.072 29.9903 116.996 28.5049 116.996 25.5341C116.996 22.5632 116.192 21.0746 114.584 21.0682C113.63 21.0682 112.816 21.6502 112.14 22.8143V29.4158C112.775 29.7793 113.493 29.9728 114.225 29.9773V29.9903Z" fill="white"/>
<path id="Vector_6" d="M130.497 29.9787L131.301 29.8587C131.557 29.8587 131.776 30.1497 131.955 30.7317C132.097 31.1384 132.187 31.5616 132.222 31.991C132.222 32.9582 131.269 33.4418 129.363 33.4418C126.462 33.4418 125.011 31.8439 125.011 28.648V21.1831H124.534C123.937 21.1831 123.639 20.6898 123.639 19.7031V19.2195C123.639 18.2329 123.937 17.7396 124.534 17.7396H125.011L125.403 14.9126C125.503 14.2808 126.04 13.9648 127.014 13.9648H127.938C128.932 13.9648 129.429 14.2808 129.429 14.9126V17.7234H130.889C131.485 17.7234 131.784 18.2167 131.784 19.2033V19.7064C131.784 20.693 131.485 21.1864 130.889 21.1864H129.421V28.7065C129.421 29.5546 129.78 29.9787 130.497 29.9787Z" fill="white"/>
<path id="Vector_7" d="M136.011 31.3815C134.78 30.0096 134.164 28.0308 134.164 25.4452C134.164 22.8596 134.78 20.8917 136.011 19.5414C137.241 18.1804 139.04 17.5 141.405 17.5C143.77 17.5 145.563 18.1804 146.783 19.5414C147.996 20.8938 148.602 22.8628 148.602 25.4484C148.602 28.0341 147.992 30.0129 146.77 31.3847C145.547 32.7566 143.754 33.4424 141.392 33.4424C139.028 33.4424 137.235 32.7555 136.011 31.3815ZM138.624 25.4614C138.624 28.4712 139.544 29.976 141.382 29.976C143.22 29.976 144.14 28.4712 144.14 25.4614C144.14 22.4517 143.22 20.9468 141.382 20.9468C139.544 20.9468 138.627 22.4517 138.634 25.4614H138.624Z" fill="white"/>
<path id="Vector_8" d="M157.166 13.0789C157.166 12.6462 157.771 12.4297 158.982 12.4297H159.962C160.956 12.4297 161.541 12.7154 161.72 13.2866L166.076 27.1388H166.196L170.666 13.2866C170.864 12.7154 171.45 12.4297 172.424 12.4297H173.348C174.54 12.4297 175.136 12.6462 175.136 13.0789C175.132 13.2596 175.102 13.4388 175.047 13.6111L168.61 32.6434C168.471 33.0567 167.914 33.2645 166.941 33.2666H165.392C164.419 33.2666 163.862 33.0589 163.723 32.6434L157.286 13.6111C157.228 13.4385 157.186 13.26 157.166 13.0789Z" fill="white"/>
<path id="Vector_9" d="M176.652 29.1223C176.648 28.6154 176.698 28.1094 176.802 27.6132C176.936 27.0864 177.169 26.5898 177.488 26.1493C177.858 25.6118 178.347 25.1672 178.92 24.8511C180.328 24.0224 182.424 23.608 185.205 23.608V22.6344C185.205 21.5092 184.431 20.9466 182.882 20.9466C181.78 20.9482 180.691 21.191 179.694 21.6574C179.494 21.7593 179.283 21.8389 179.066 21.8943C178.768 21.8943 178.436 21.5882 178.07 20.9758C177.77 20.5513 177.579 20.0596 177.518 19.5445C177.518 19.0123 178.069 18.5384 179.17 18.123C180.469 17.676 181.837 17.465 183.21 17.4998C187.48 17.4998 189.616 19.1474 189.616 22.4428V27.9831C189.604 29.0116 189.664 30.0396 189.796 31.0599L189.976 32.2738C189.976 32.5897 189.574 32.8267 188.77 32.9846C188.178 33.1167 187.574 33.1959 186.967 33.2215C186.698 33.2449 186.427 33.2049 186.176 33.1047C186.027 33.0099 185.912 32.87 185.85 32.7055C185.77 32.5172 185.709 32.3809 185.67 32.2608C185.611 32.0719 185.565 31.8788 185.535 31.6831C185.487 31.4072 185.451 31.2385 185.431 31.18C184.99 31.8843 184.347 32.4406 183.585 32.7769C182.804 33.1864 181.936 33.4088 181.053 33.426C179.528 33.426 178.411 33.0312 177.7 32.2413C176.99 31.4516 176.641 30.4119 176.652 29.1223ZM181.033 28.6777C181.017 29.0347 181.16 29.3806 181.422 29.6254C181.75 29.8854 182.167 30.0116 182.586 29.9792C183.135 29.9672 183.668 29.7808 184.105 29.4469C184.586 29.1099 184.966 28.6501 185.205 28.1162V26.4933C182.424 26.489 181.033 27.2172 181.033 28.6777Z" fill="white"/>
<path id="Vector_10" d="M199.001 29.9774L199.805 29.8573C200.061 29.8573 200.279 30.1483 200.457 30.7304C200.601 31.1371 200.691 31.5602 200.725 31.9897C200.725 32.9569 199.771 33.4405 197.863 33.4405C194.963 33.4405 193.512 31.8426 193.512 28.6468V11.8344C193.512 11.2026 194.107 10.8867 195.299 10.8867H196.131C197.323 10.8867 197.919 11.2026 197.919 11.8344V28.7116C197.933 29.5555 198.293 29.9774 199.001 29.9774Z" fill="white"/>
<path id="Vector_11" d="M207.852 29.9774L208.656 29.8573C208.912 29.8573 209.13 30.1483 209.308 30.7304C209.452 31.1371 209.542 31.5602 209.576 31.9897C209.576 32.9569 208.622 33.4405 206.714 33.4405C203.814 33.4405 202.364 31.8426 202.365 28.6468V11.8344C202.365 11.2026 202.962 10.8867 204.153 10.8867H204.986C206.178 10.8867 206.773 11.2026 206.773 11.8344V28.7116C206.778 29.5555 207.138 29.9774 207.852 29.9774Z" fill="white"/>
<path id="Vector_12" d="M212.513 31.3542C211.233 29.9629 210.592 27.955 210.592 25.3303C210.592 22.7057 211.233 20.7421 212.513 19.4395C213.795 18.1413 215.551 17.4922 217.787 17.4922C220.021 17.4922 221.656 18.2029 222.688 19.6246C223.731 21.0461 224.253 22.8853 224.253 25.1421C224.253 25.378 224.049 25.7285 223.642 26.1936C223.235 26.6589 222.931 26.8903 222.733 26.8882H215.151C215.248 28.0133 215.586 28.8129 216.163 29.2867C216.79 29.7774 217.571 30.0297 218.369 29.9975C219.243 30.0011 220.111 29.8459 220.93 29.5399C221.745 29.2348 222.162 29.0823 222.181 29.0823C222.48 29.0823 222.811 29.3733 223.177 29.9553C223.477 30.3594 223.668 30.8333 223.731 31.3314C223.731 31.9806 223.109 32.4988 221.868 32.8861C220.738 33.2529 219.557 33.4476 218.369 33.4638C215.746 33.4487 213.795 32.7455 212.513 31.3542ZM219.979 23.938C220.017 23.1768 219.831 22.4213 219.443 21.7633C219.093 21.2239 218.478 20.9127 217.833 20.9488C216.363 20.9488 215.469 21.9451 215.151 23.938H219.979Z" fill="white"/>
<path id="Vector_13" d="M225.712 18.3165C225.712 17.8837 226.317 17.6673 227.528 17.6673H228.482C229.456 17.6673 230.013 17.875 230.152 18.2905L231.897 23.7626C232.076 24.3143 232.353 25.5044 232.73 27.3328H232.847C233.246 25.4373 233.524 24.2473 233.68 23.7626L235.438 18.2872C235.577 17.8739 236.134 17.6662 237.108 17.6641H237.824C239.015 17.6641 239.61 17.8804 239.61 18.3133C239.604 18.4936 239.574 18.6725 239.523 18.8455L232.703 38.6924C232.545 39.1057 231.988 39.3134 231.034 39.3155H230.528C229.336 39.3155 228.741 39.1078 228.741 38.6924C228.741 38.5087 228.782 38.3273 228.858 38.1602L230.736 33.217L225.836 18.8617C225.776 18.6848 225.734 18.5021 225.712 18.3165Z" fill="white"/>
<path id="Vector_14" d="M21.7996 5.28751V0.578125C14.7631 1.30482 8.43133 5.14438 4.56445 11.029L8.63881 13.3755C11.6513 8.92552 16.4461 5.97882 21.7996 5.28751Z" fill="#ED1C24"/>
<path id="Vector_15" d="M26.1709 42.2954V46.9853C32.7375 46.4323 38.7668 43.1597 42.782 37.9689L38.6684 35.6094C35.5459 39.3792 31.0579 41.7803 26.1709 42.2954Z" fill="#ED1C24"/>
<path id="Vector_16" d="M42.7956 23.4347C42.7979 26.274 42.1428 29.0759 40.8809 31.6234L44.9585 33.9635C48.0896 27.8442 48.3396 20.6633 45.6414 14.3438L41.5245 16.7033C42.3655 18.8494 42.7965 21.132 42.7956 23.4347Z" fill="#ED1C24"/>
<path id="Vector_17" d="M39.6323 13.195L43.7197 10.8517C39.7555 4.94111 33.2953 1.14764 26.1709 0.546875V5.23355C31.6119 5.81094 36.528 8.71868 39.6323 13.195Z" fill="#ED1C24"/>
<path id="Vector_18" d="M9.59694 35.4492L5.49316 37.7991C9.41658 42.9687 15.3275 46.2844 21.8102 46.9516V42.2391C17.0095 41.6266 12.6329 39.1937 9.59694 35.4492Z" fill="#ED1C24"/>
<path id="Vector_19" d="M24.7702 31.4102C21.276 31.4123 18.2161 29.0819 17.3115 25.7294C16.4068 22.3767 17.8823 18.8387 20.9088 17.1039C23.9353 15.3695 27.7575 15.8713 30.2266 18.3272L33.0659 15.5067C28.5187 10.9863 21.1552 10.946 16.558 15.4165C11.9612 19.887 11.8456 27.201 16.2989 31.8127C20.752 36.4248 28.1133 36.6143 32.8012 32.2379L29.9619 29.4175C28.5426 30.7023 26.6907 31.4135 24.7702 31.4102Z" fill="#ED1C24"/>
</g>
<defs>
<clipPath id="clip0_1692_20002">
<rect width="240" height="48" fill="white" transform="translate(0.175781)"/>
</clipPath>
</defs>
</svg>
