<svg width="217" height="80" viewBox="0 0 217 80" fill="none" xmlns="http://www.w3.org/2000/svg">
<g id="logo-vi-black 1" clip-path="url(#clip0_1692_19967)">
<g id="Group">
<g id="Group_2">
<path id="Vector" d="M60.8283 16.4141V26.5564H59.3801V22.0337H53.5565V26.5564H52.1084V16.4141H53.5565V20.7815H59.3801V16.4141H60.8283Z" fill="white"/>
<path id="Vector_2" d="M64.4375 16.4141H65.8856V26.5564H64.4375V16.4141Z" fill="white"/>
<path id="Vector_3" d="M76.8719 25.3008V26.553H69.5381V16.4107H76.696V17.6733H70.9655V20.7781H76.0444V22.0097H70.9655V25.2904L76.8719 25.3008ZM71.7724 15.5828H70.5104L72.4344 13.6992H73.7687L75.7444 15.5828H74.4411L73.1067 14.4858L71.7724 15.5828ZM73.9859 28.6746C73.9874 28.771 73.9693 28.8668 73.9327 28.956C73.8962 29.0452 73.842 29.1261 73.7734 29.1938C73.7047 29.2615 73.6231 29.3146 73.5334 29.3499C73.4438 29.3852 73.3479 29.4019 73.2515 29.3991C73.1543 29.4033 73.0573 29.3877 72.9664 29.353C72.8755 29.3184 72.7926 29.2655 72.7229 29.1977C72.6531 29.1298 72.598 29.0484 72.5608 28.9585C72.5237 28.8685 72.5053 28.772 72.5068 28.6746C72.5054 28.5759 72.5237 28.4779 72.5605 28.3863C72.5973 28.2947 72.6519 28.2113 72.7212 28.141C72.7905 28.0707 72.8731 28.0149 72.9641 27.9768C73.0551 27.9387 73.1528 27.9191 73.2515 27.9191C73.3497 27.9191 73.447 27.9388 73.5374 27.977C73.6279 28.0152 73.7098 28.0712 73.7783 28.1416C73.8468 28.2121 73.9004 28.2955 73.9361 28.3871C73.9718 28.4786 73.9887 28.5764 73.9859 28.6746Z" fill="white"/>
<path id="Vector_4" d="M87.9804 19.9464C87.9804 22.1508 86.3874 23.4755 83.7498 23.4755H81.2362V26.5803H79.7881V16.438H83.7498C86.3874 16.407 87.9804 17.742 87.9804 19.9464ZM86.5323 19.9464C86.5323 18.4975 85.5599 17.6696 83.7084 17.6696H81.2362V22.2233H83.7084C85.5599 22.2233 86.5323 21.3953 86.5323 19.9464Z" fill="white"/>
<path id="Vector_5" d="M104.024 16.4141V26.5564H102.575V22.0337H96.7518V26.5564H95.3037V16.4141H96.7518V20.7815H102.575V16.4141H104.024Z" fill="white"/>
<path id="Vector_6" d="M117.596 21.4819C117.64 22.557 117.36 23.6204 116.795 24.5355C116.229 25.4505 115.403 26.1754 114.422 26.6167C113.441 27.058 112.351 27.1957 111.291 27.012C110.232 26.8283 109.251 26.3317 108.476 25.5859C107.701 24.8402 107.167 23.8795 106.942 22.8273C106.717 21.7752 106.811 20.6798 107.214 19.682C107.616 18.6841 108.307 17.8296 109.199 17.2282C110.091 16.6268 111.142 16.306 112.217 16.3072C112.914 16.2793 113.609 16.3926 114.26 16.6401C114.912 16.8876 115.507 17.2644 116.009 17.7477C116.511 18.231 116.911 18.8109 117.184 19.4526C117.456 20.0943 117.597 20.7846 117.596 21.4819ZM116.148 21.4819C116.156 20.6999 115.932 19.9331 115.503 19.279C115.075 18.6249 114.462 18.1131 113.742 17.8086C113.022 17.5041 112.228 17.4207 111.46 17.5689C110.693 17.7172 109.986 18.0905 109.432 18.6413C108.877 19.1921 108.498 19.8956 108.344 20.6622C108.189 21.4289 108.267 22.2242 108.565 22.9469C108.864 23.6697 109.37 24.2872 110.021 24.7211C110.671 25.155 111.436 25.3856 112.217 25.3836C112.735 25.3991 113.251 25.3091 113.733 25.1189C114.214 24.9288 114.653 24.6425 115.02 24.2774C115.388 23.9124 115.678 23.4763 115.872 22.9957C116.065 22.5151 116.159 22 116.148 21.4819ZM110.914 15.5828H109.652L111.586 13.6992H112.921L114.845 15.5828H113.583L112.217 14.4858L110.914 15.5828ZM112.983 28.6746C112.984 28.772 112.966 28.8685 112.929 28.9585C112.892 29.0484 112.836 29.1298 112.767 29.1977C112.697 29.2655 112.614 29.3184 112.523 29.353C112.432 29.3877 112.335 29.4033 112.238 29.3991C112.142 29.4019 112.046 29.3852 111.956 29.3499C111.866 29.3146 111.785 29.2615 111.716 29.1938C111.648 29.1261 111.593 29.0452 111.557 28.956C111.52 28.8668 111.502 28.771 111.504 28.6746C111.501 28.5764 111.518 28.4786 111.553 28.3871C111.589 28.2955 111.643 28.2121 111.711 28.1416C111.78 28.0712 111.862 28.0152 111.952 27.977C112.043 27.9388 112.14 27.9191 112.238 27.9191C112.337 27.9191 112.434 27.9387 112.525 27.9768C112.617 28.0149 112.699 28.0707 112.768 28.141C112.838 28.2113 112.892 28.2947 112.929 28.3863C112.966 28.4779 112.984 28.5759 112.983 28.6746Z" fill="white"/>
<path id="Vector_7" d="M120.389 16.4141H121.837V26.5564H120.389V16.4141Z" fill="white"/>
</g>
<g id="Group_3">
<path id="Vector_8" d="M65.5777 46.901C65.5777 49.6229 63.3331 51.2167 59.1128 51.2167H50.6309V35.4961H58.668C62.8056 35.4961 64.8226 37.1727 64.8226 39.6358C64.8373 40.3428 64.6505 41.0394 64.2842 41.6442C63.9179 42.249 63.3871 42.7369 62.7538 43.0511C63.5788 43.2985 64.3007 43.8081 64.8103 44.5028C65.3198 45.1975 65.5892 46.0394 65.5777 46.901ZM55.058 38.7044V41.7367H58.1612C59.6507 41.7367 60.4058 41.2192 60.4058 40.205C60.4058 39.1908 59.6507 38.7044 58.1612 38.7044H55.058ZM61.1195 46.4146C61.1195 45.3279 60.3127 44.8105 58.7818 44.8105H55.058V48.0084H58.7818C60.2817 48.0084 61.0885 47.4909 61.0885 46.4146H61.1195Z" fill="url(#paint0_linear_1692_19967)"/>
<path id="Vector_9" d="M68.7949 35.4961H73.2428V47.6876H80.7421V51.2167H68.7949V35.4961Z" fill="url(#paint1_linear_1692_19967)"/>
<path id="Vector_10" d="M82.335 43.3517C82.335 38.6324 86.0484 35.1758 91.0755 35.1758C96.1026 35.1758 99.8057 38.6324 99.8057 43.3517C99.8057 48.071 96.1026 51.538 91.0755 51.538C86.0484 51.538 82.335 48.071 82.335 43.3517ZM95.3165 43.3517C95.3571 42.7696 95.2776 42.1853 95.0829 41.6352C94.8882 41.0851 94.5824 40.581 94.1847 40.1542C93.7869 39.7274 93.3056 39.3871 92.7707 39.1544C92.2358 38.9217 91.6588 38.8016 91.0755 38.8016C90.4922 38.8016 89.9152 38.9217 89.3803 39.1544C88.8454 39.3871 88.3641 39.7274 87.9663 40.1542C87.5686 40.581 87.2628 41.0851 87.0681 41.6352C86.8734 42.1853 86.7939 42.7696 86.8345 43.3517C86.7939 43.9339 86.8734 44.5182 87.0681 45.0682C87.2628 45.6183 87.5686 46.1225 87.9663 46.5492C88.3641 46.976 88.8454 47.3163 89.3803 47.549C89.9152 47.7817 90.4922 47.9018 91.0755 47.9018C91.6588 47.9018 92.2358 47.7817 92.7707 47.549C93.3056 47.3163 93.7869 46.976 94.1847 46.5492C94.5824 46.1225 94.8882 45.6183 95.0829 45.0682C95.2776 44.5182 95.3571 43.9339 95.3165 43.3517Z" fill="url(#paint2_linear_1692_19967)"/>
<path id="Vector_11" d="M102.236 43.3495C102.236 38.5682 105.898 35.1736 110.884 35.1736C112.163 35.1122 113.438 35.3484 114.61 35.8638C115.782 36.3792 116.819 37.1597 117.638 38.1438L114.814 40.7001C114.381 40.1283 113.821 39.6645 113.179 39.345C112.536 39.0254 111.829 38.8587 111.111 38.8579C110.524 38.8409 109.94 38.9466 109.396 39.1684C108.852 39.3902 108.361 39.7231 107.953 40.1459C107.545 40.5686 107.229 41.0719 107.027 41.6236C106.825 42.1752 106.74 42.7631 106.777 43.3495C106.738 43.9413 106.823 44.5348 107.028 45.0914C107.232 45.648 107.552 46.1552 107.966 46.5799C108.38 47.0046 108.878 47.3373 109.429 47.5564C109.98 47.7755 110.571 47.8761 111.163 47.8515C111.882 47.8511 112.59 47.6835 113.233 47.362C113.876 47.0405 114.435 46.5738 114.866 45.9989L117.69 48.5656C116.868 49.5526 115.828 50.3348 114.653 50.8503C113.477 51.3658 112.197 51.6005 110.915 51.5358C105.898 51.5358 102.236 48.1412 102.236 43.3495Z" fill="url(#paint3_linear_1692_19967)"/>
<path id="Vector_12" d="M126.586 45.5349L124.92 47.3046V51.2374H120.514V35.4961H124.92V42.0265L131.002 35.4961H135.895L129.533 42.4301L136.288 51.196H131.116L126.586 45.5349Z" fill="url(#paint4_linear_1692_19967)"/>
<path id="Vector_13" d="M136.939 43.35C136.939 38.5686 140.591 35.1741 145.577 35.1741C146.857 35.111 148.135 35.3465 149.309 35.862C150.483 36.3774 151.521 37.1587 152.341 38.1443L149.507 40.7006C149.075 40.127 148.516 39.6619 147.873 39.3422C147.23 39.0224 146.522 38.8568 145.804 38.8584C145.213 38.8338 144.624 38.9341 144.074 39.1526C143.524 39.3712 143.027 39.7032 142.614 40.127C142.201 40.5507 141.883 41.0568 141.678 41.6121C141.474 42.1674 141.389 42.7596 141.429 43.35C141.387 43.9413 141.471 44.5346 141.675 45.0911C141.878 45.6477 142.197 46.1551 142.61 46.58C143.023 47.0049 143.521 47.3378 144.071 47.557C144.622 47.7762 145.212 47.8767 145.804 47.852C146.523 47.8532 147.232 47.6863 147.875 47.3647C148.518 47.043 149.077 46.5755 149.507 45.9994L152.341 48.5661C151.521 49.5516 150.483 50.3329 149.309 50.8484C148.135 51.3639 146.857 51.5994 145.577 51.5363C140.591 51.5363 136.939 48.1417 136.939 43.35Z" fill="url(#paint5_linear_1692_19967)"/>
<path id="Vector_14" d="M170.174 35.4961V51.2167H165.737V45.0795H159.675V51.2167H155.228V35.4961H159.675V41.3952H165.737V35.4961H170.174Z" fill="url(#paint6_linear_1692_19967)"/>
<path id="Vector_15" d="M184.749 48.1588H178.15L176.919 51.2635H172.378L179.319 35.543H183.704L190.666 51.2635H186.032L184.749 48.1588ZM183.446 44.878L181.377 39.8483L179.308 44.878H183.446Z" fill="url(#paint7_linear_1692_19967)"/>
<path id="Vector_16" d="M192.765 35.4961H197.212V51.2167H192.765V35.4961Z" fill="url(#paint8_linear_1692_19967)"/>
<path id="Vector_17" d="M216.236 35.4961V51.2167H212.574L205.633 42.8337V51.2167H201.278V35.4961H204.94L211.881 43.8687V35.4961H216.236Z" fill="url(#paint9_linear_1692_19967)"/>
</g>
<g id="Group_4">
<path id="Vector_18" d="M68.1619 59.375L61.428 75.1059H57.0526L50.3291 59.375H55.139L59.411 69.6208L63.7657 59.375H68.1619Z" fill="white"/>
<path id="Vector_19" d="M69.9824 59.375H74.4303V75.1059H69.9824V59.375Z" fill="white"/>
<path id="Vector_20" d="M91.1151 71.659V75.1053H78.4956V59.3744H90.8255V62.8103H82.9021V65.4597H89.8842V68.7819H82.9021V71.659H91.1151ZM82.7366 58.091H79.8817L82.7986 54.6758H86.481L89.398 58.091H86.6052L84.6709 56.3834L82.7366 58.091ZM86.5121 78.2722C86.4779 78.7195 86.2762 79.1374 85.9473 79.4423C85.6184 79.7472 85.1865 79.9166 84.7381 79.9166C84.2897 79.9166 83.8579 79.7472 83.5289 79.4423C83.2 79.1374 82.9983 78.7195 82.9641 78.2722C82.9455 78.0277 82.9775 77.782 83.0582 77.5505C83.1388 77.3189 83.2665 77.1066 83.433 76.9267C83.5996 76.7469 83.8015 76.6034 84.026 76.5052C84.2506 76.4071 84.493 76.3564 84.7381 76.3564C84.9832 76.3564 85.2256 76.4071 85.4502 76.5052C85.6747 76.6034 85.8766 76.7469 86.0432 76.9267C86.2098 77.1066 86.3374 77.3189 86.4181 77.5505C86.4987 77.782 86.5308 78.0277 86.5121 78.2722Z" fill="white"/>
<path id="Vector_21" d="M97.828 62.9041H93.0078V59.375H107.086V62.9041H102.276V75.1059H97.828V62.9041Z" fill="white"/>
<path id="Vector_22" d="M132.035 59.375V75.1059H128.373L121.433 66.723V75.1059H117.119V59.375H120.781L127.722 67.7579V59.375H132.035Z" fill="white"/>
<path id="Vector_23" d="M146.609 72.0404H139.968L138.727 75.1452H134.196L141.127 59.4143H145.512L152.474 75.1452H147.85L146.609 72.0404ZM145.306 68.7597L143.289 63.73L141.22 68.7597H145.306Z" fill="white"/>
<path id="Vector_24" d="M168.838 75.1059L168.786 66.7644L164.7 73.5535H162.714L158.701 66.9921V75.1059H154.563V59.375H158.225L163.749 68.4513L169.148 59.375H172.81V75.1059H168.838Z" fill="white"/>
</g>
<g id="Group_5">
<path id="Vector_25" d="M35.3198 30.6328C36.2771 31.3966 37.114 32.3002 37.8023 33.3133C39.3655 35.538 40.0575 38.2597 39.7469 40.9614C39.6022 42.2871 39.1792 43.5674 38.5057 44.7182C36.4632 47.9497 33.5125 50.5059 30.0237 52.0662C27.8635 53.0769 25.603 53.8574 23.2796 54.3948C19.2047 55.2759 15.0237 55.5618 10.867 55.2434C10.0707 55.1937 9.27903 55.0865 8.49821 54.9226C8.36374 54.9226 8.20859 54.6018 8.19824 54.4258C8.19824 53.898 8.19824 53.3909 8.19824 52.8424V35.8592C9.20295 36.005 10.2146 36.0982 11.229 36.1386C13.908 36.1386 16.5871 36.0765 19.2661 35.9213C20.9148 35.8119 22.5554 35.6046 24.1795 35.3003C25.0352 35.1541 25.8814 34.9571 26.7137 34.7104C29.3764 33.9949 31.9303 32.9227 34.3061 31.5228C34.5543 31.2952 34.8647 31.0468 35.3198 30.6328Z" fill="url(#paint10_linear_1692_19967)"/>
<path id="Vector_26" d="M3.33739 16.824C2.53868 15.9098 1.7993 14.9454 1.12381 13.9366C-0.241579 11.6804 0.234237 9.53814 1.77547 7.50968C3.25884 5.72135 5.16941 4.33662 7.33011 3.4838C9.11622 2.71098 10.9595 2.07777 12.8434 1.58988C14.717 1.12983 16.6169 0.784217 18.5325 0.554955C20.5125 0.249714 22.509 0.0630946 24.5112 -0.00390625C26.7972 -0.00390625 29.0832 0.130635 31.3588 0.223778C31.5666 0.24598 31.7713 0.291101 31.9691 0.358319V10.6248C30.8727 10.5524 29.7866 10.4385 28.7005 10.4282C26.3524 10.4282 24.0044 10.4282 21.6563 10.5006C20.1362 10.5357 18.6212 10.6915 17.1257 10.9663C15.3362 11.3079 13.5881 11.8357 11.84 12.3531C9.41248 13.0527 7.10657 14.1208 5.00275 15.52C4.45452 15.9133 3.95802 16.348 3.33739 16.824Z" fill="url(#paint11_linear_1692_19967)"/>
<path id="Vector_27" d="M20.5386 24.0296V23.3051C20.5386 19.6622 20.5386 16.0606 20.5386 12.3659C20.5386 11.8381 20.4765 11.4759 20.6214 11.4656C20.9672 11.4606 21.313 11.4814 21.6557 11.5276C23.9057 11.7908 26.1236 12.2797 28.2758 12.9869C30.8422 13.7562 33.2667 14.9376 35.4544 16.485C36.835 17.4238 37.9903 18.6574 38.8369 20.0969C39.729 21.6477 39.9814 23.4856 39.5402 25.2198C38.961 27.6311 37.0474 29.08 35.4027 30.6324C33.5615 28.3556 31.2135 27.4035 28.6585 26.3685C26.7252 25.5261 24.7298 24.8341 22.6901 24.2987C22.2881 24.2012 21.8805 24.1286 21.4696 24.0813C21.1607 24.0437 20.8497 24.0264 20.5386 24.0296Z" fill="#2560D6"/>
<path id="Vector_28" d="M19.3388 35.1839C17.6114 34.832 15.9254 34.5422 14.2807 34.1489C11.5132 33.5275 8.85105 32.506 6.37799 31.1166C4.81645 30.2537 3.41649 29.1261 2.24046 27.7841C0.95312 26.4661 0.237542 24.6931 0.249163 22.8503C0.260783 21.0074 0.998664 19.2436 2.30252 17.9419C2.64387 17.5487 3.01624 17.1761 3.3369 16.8242C8.09507 20.3844 13.6807 21.7298 19.3388 22.4749V35.1839Z" fill="#D0D2D3"/>
</g>
</g>
</g>
<defs>
<linearGradient id="paint0_linear_1692_19967" x1="48.831" y1="42.4922" x2="203.878" y2="63.707" gradientUnits="userSpaceOnUse">
<stop stop-color="#F3257B"/>
<stop offset="1" stop-color="#8149FA"/>
</linearGradient>
<linearGradient id="paint1_linear_1692_19967" x1="49.1313" y1="40.3603" x2="204.168" y2="61.5647" gradientUnits="userSpaceOnUse">
<stop stop-color="#F3257B"/>
<stop offset="1" stop-color="#8149FA"/>
</linearGradient>
<linearGradient id="paint2_linear_1692_19967" x1="49.4933" y1="37.6596" x2="204.54" y2="58.8641" gradientUnits="userSpaceOnUse">
<stop stop-color="#F3257B"/>
<stop offset="1" stop-color="#8149FA"/>
</linearGradient>
<linearGradient id="paint3_linear_1692_19967" x1="49.8655" y1="34.9977" x2="204.902" y2="56.2021" gradientUnits="userSpaceOnUse">
<stop stop-color="#F3257B"/>
<stop offset="1" stop-color="#8149FA"/>
</linearGradient>
<linearGradient id="paint4_linear_1692_19967" x1="50.1756" y1="32.6707" x2="205.222" y2="53.8752" gradientUnits="userSpaceOnUse">
<stop stop-color="#F3257B"/>
<stop offset="1" stop-color="#8149FA"/>
</linearGradient>
<linearGradient id="paint5_linear_1692_19967" x1="50.496" y1="30.3306" x2="205.543" y2="51.5351" gradientUnits="userSpaceOnUse">
<stop stop-color="#F3257B"/>
<stop offset="1" stop-color="#8149FA"/>
</linearGradient>
<linearGradient id="paint6_linear_1692_19967" x1="50.8169" y1="28.0343" x2="205.853" y2="49.2387" gradientUnits="userSpaceOnUse">
<stop stop-color="#F3257B"/>
<stop offset="1" stop-color="#8149FA"/>
</linearGradient>
<linearGradient id="paint7_linear_1692_19967" x1="51.0964" y1="25.9802" x2="206.133" y2="47.1847" gradientUnits="userSpaceOnUse">
<stop stop-color="#F3257B"/>
<stop offset="1" stop-color="#8149FA"/>
</linearGradient>
<linearGradient id="paint8_linear_1692_19967" x1="51.4062" y1="23.6979" x2="206.453" y2="44.9022" gradientUnits="userSpaceOnUse">
<stop stop-color="#F3257B"/>
<stop offset="1" stop-color="#8149FA"/>
</linearGradient>
<linearGradient id="paint9_linear_1692_19967" x1="51.665" y1="21.8454" x2="206.701" y2="43.0498" gradientUnits="userSpaceOnUse">
<stop stop-color="#F3257B"/>
<stop offset="1" stop-color="#8149FA"/>
</linearGradient>
<linearGradient id="paint10_linear_1692_19967" x1="8.86025" y1="47.8747" x2="39.0062" y2="36.4493" gradientUnits="userSpaceOnUse">
<stop stop-color="#2560D6"/>
<stop offset="0.22" stop-color="#255ED3"/>
<stop offset="0.41" stop-color="#2459C8"/>
<stop offset="0.58" stop-color="#234FB6"/>
<stop offset="0.75" stop-color="#21429E"/>
<stop offset="0.77" stop-color="#21409A"/>
<stop offset="0.8" stop-color="#20398D"/>
<stop offset="0.88" stop-color="#1E2A70"/>
<stop offset="0.95" stop-color="#1D205E"/>
<stop offset="1" stop-color="#1D1D58"/>
</linearGradient>
<linearGradient id="paint11_linear_1692_19967" x1="0.306644" y1="8.41007" x2="31.9691" y2="8.41007" gradientUnits="userSpaceOnUse">
<stop stop-color="#8149FA"/>
<stop offset="1" stop-color="#F3257B"/>
</linearGradient>
<clipPath id="clip0_1692_19967">
<rect width="216" height="80" fill="white" transform="translate(0.233398)"/>
</clipPath>
</defs>
</svg>
