<svg width="32" height="32" viewBox="0 0 32 32" fill="none" xmlns="http://www.w3.org/2000/svg">
<g id="arrow-right-contained-02-filled">
<path id="Icon" fill-rule="evenodd" clip-rule="evenodd" d="M3.19971 16.0002C3.19971 23.0694 8.93046 28.8002 15.9997 28.8002C23.069 28.8002 28.7997 23.0694 28.7997 16.0002C28.7997 8.93095 23.069 3.2002 15.9997 3.2002C8.93046 3.2002 3.19971 8.93095 3.19971 16.0002ZM23.5311 17.1316C24.1559 16.5067 24.1559 15.4937 23.5311 14.8688L17.9311 9.26882C17.3062 8.64399 16.2932 8.64399 15.6683 9.26882C15.0435 9.89366 15.0435 10.9067 15.6683 11.5316L17.7176 13.5808C18.0199 13.8832 17.8058 14.4002 17.3781 14.4002H9.59971C8.71605 14.4002 7.99971 15.1165 7.99971 16.0002C7.99971 16.8839 8.71605 17.6002 9.59971 17.6002H17.3781C17.8058 17.6002 18.0199 18.1172 17.7176 18.4196L15.6683 20.4688C15.0435 21.0937 15.0435 22.1067 15.6683 22.7316C16.2932 23.3564 17.3062 23.3564 17.9311 22.7316L23.5311 17.1316Z" fill="white"/>
</g>
</svg>
