<svg width="74" height="68" viewBox="0 0 74 68" fill="none" xmlns="http://www.w3.org/2000/svg">
<g id="Group 1000004188">
<g id="Vector" style="mix-blend-mode:overlay">
<path d="M6.03228 46.7132C6.19707 46.7137 6.35914 46.6711 6.50239 46.5897C6.60894 46.5281 6.70229 46.4462 6.77708 46.3484C6.85186 46.2507 6.90662 46.1392 6.93819 46.0203C6.96977 45.9013 6.97754 45.7773 6.96107 45.6554C6.9446 45.5334 6.90422 45.4159 6.84222 45.3097L3.54243 39.6185C2.52221 37.8582 1.98493 35.8596 1.98493 33.8249C1.98493 31.7903 2.52221 29.7917 3.54243 28.0313L6.72441 22.5554C6.78641 22.4491 6.8268 22.3317 6.84326 22.2097C6.85973 22.0878 6.85196 21.9638 6.82038 21.8448C6.78881 21.7259 6.73405 21.6144 6.65927 21.5167C6.58448 21.4189 6.49113 21.337 6.38458 21.2754C6.16854 21.1504 5.91183 21.116 5.67051 21.1797C5.42919 21.2434 5.22287 21.4 5.09661 21.6152L1.91235 27.0945C0.727481 29.1399 0.103516 31.4617 0.103516 33.8255C0.103516 36.1893 0.727481 38.5111 1.91235 40.5565L5.21442 46.2499C5.29845 46.3917 5.41816 46.5092 5.56164 46.5905C5.70512 46.6717 5.86738 46.714 6.03228 46.7132Z" fill="white"/>
</g>
<path id="Vector_2" d="M14.0503 60.7066L2.30336 40.4887C1.1592 38.5148 0.556641 36.2737 0.556641 33.9922C0.556641 31.7106 1.1592 29.4696 2.30336 27.4957L14.0503 7.27776C15.2075 5.30066 16.8619 3.66079 18.8492 2.52111C20.8364 1.38142 23.0873 0.781602 25.3781 0.78125H48.8709C51.1618 0.781375 53.4128 1.3811 55.4001 2.52081C57.3874 3.66051 59.0417 5.30051 60.1987 7.27776L71.9423 27.4991C73.0859 29.4732 73.6881 31.7142 73.6881 33.9956C73.6881 36.277 73.0859 38.518 71.9423 40.4921L60.1942 60.7066C59.037 62.6837 57.3826 64.3236 55.3954 65.4632C53.4081 66.6029 51.1572 67.2027 48.8664 67.2031H25.3747C23.0845 67.2019 20.8344 66.6017 18.8479 65.4621C16.8613 64.3225 15.2074 62.683 14.0503 60.7066ZM25.3781 1.71806C23.2531 1.7191 21.1653 2.27594 19.3221 3.3333C17.4788 4.39067 15.9441 5.91177 14.8704 7.7456L3.12009 27.9635C2.05827 29.795 1.49906 31.8745 1.49906 33.9916C1.49906 36.1087 2.05827 38.1882 3.12009 40.0197L14.867 60.2365C15.9405 62.0706 17.4751 63.592 19.3184 64.6496C21.1617 65.7071 23.2496 66.2641 25.3747 66.2651H48.8709C50.9959 66.2643 53.0838 65.7073 54.9269 64.6497C56.7701 63.5921 58.3044 62.0707 59.3775 60.2365L71.1256 40.0197C72.1868 38.188 72.7457 36.1086 72.7457 33.9916C72.7457 31.8747 72.1868 29.7952 71.1256 27.9635L59.3775 7.7456C58.3041 5.91178 56.7696 4.39066 54.9265 3.33329C53.0834 2.27591 50.9958 1.71907 48.8709 1.71806H25.3781Z" fill="white"/>
<g id="Vector_3" style="mix-blend-mode:overlay">
<path d="M12.2866 12.188C12.4521 12.1883 12.6147 12.1451 12.7582 12.0628C12.9018 11.9805 13.0212 11.8619 13.1045 11.719L15.2749 7.98081C16.3065 6.21802 17.7813 4.75578 19.5529 3.73933C21.3245 2.72288 23.3312 2.18759 25.3736 2.18663H48.8698C50.9123 2.18759 52.919 2.72288 54.6905 3.73933C56.4621 4.75578 57.937 6.21802 58.9686 7.98081L60.1727 10.0583C60.299 10.2736 60.5053 10.4302 60.7466 10.4939C60.9879 10.5575 61.2447 10.5231 61.4607 10.3982C61.5673 10.3366 61.6606 10.2546 61.7354 10.1569C61.8102 10.0592 61.8649 9.94767 61.8965 9.82874C61.9281 9.70981 61.9359 9.58581 61.9194 9.46386C61.9029 9.34192 61.8625 9.22442 61.8005 9.11813L60.6021 7.0474C59.4033 4.99972 57.6899 3.30119 55.6318 2.12043C53.5737 0.939664 51.2426 0.317743 48.8698 0.316406L25.3736 0.316406C23.0009 0.31763 20.6697 0.939503 18.6116 2.12028C16.5535 3.30105 14.8401 4.99965 13.6414 7.0474L11.471 10.7856C11.409 10.8919 11.3686 11.0094 11.3522 11.1313C11.3357 11.2533 11.3435 11.3773 11.375 11.4962C11.4066 11.6151 11.4614 11.7267 11.5362 11.8244C11.6109 11.9221 11.7043 12.0041 11.8108 12.0656C11.9559 12.1476 12.12 12.1899 12.2866 12.188Z" fill="white"/>
</g>
<g id="Vector_4" style="mix-blend-mode:overlay">
<path d="M39.2337 67.6883H48.8714C51.2441 67.6872 53.5752 67.0655 55.6333 65.885C57.6914 64.7044 59.4049 63.006 60.6036 60.9585L70.9765 43.1058C71.0385 42.9995 71.0789 42.882 71.0954 42.7601C71.1118 42.6381 71.1041 42.5141 71.0725 42.3952C71.0409 42.2763 70.9862 42.1647 70.9114 42.067C70.8366 41.9693 70.7432 41.8873 70.6367 41.8258C70.4206 41.7011 70.164 41.6669 69.9227 41.7305C69.6815 41.7942 69.4752 41.9506 69.3487 42.1656L58.9702 60.0205C57.9385 61.7833 56.4637 63.2456 54.6921 64.262C52.9205 65.2785 50.9139 65.8138 48.8714 65.8147H39.2337C38.9852 65.8147 38.7469 65.9134 38.5713 66.0891C38.3956 66.2648 38.2969 66.5031 38.2969 66.7515C38.2969 67 38.3956 67.2383 38.5713 67.4139C38.7469 67.5896 38.9852 67.6883 39.2337 67.6883Z" fill="white"/>
</g>
<path id="Vector_5" d="M16.5501 56.7263L7.02906 40.3338C5.91108 38.4066 5.32227 36.2182 5.32227 33.9902C5.32227 31.7622 5.91108 29.5738 7.02906 27.6466L16.5501 11.2655C17.6789 9.336 19.2927 7.73539 21.2314 6.62257C23.1701 5.50975 25.3662 4.92344 27.6015 4.92188H46.6436C48.8792 4.92325 51.0755 5.50946 53.0144 6.62229C54.9533 7.73511 56.5673 9.33583 57.6962 11.2655L67.2172 27.6523C68.3346 29.5797 68.9231 31.768 68.9231 33.9959C68.9231 36.2237 68.3346 38.4121 67.2172 40.3395L57.6973 56.7263C56.5685 58.6559 54.9544 60.2566 53.0155 61.3695C51.0766 62.4823 48.8803 63.0685 46.6447 63.0699H27.6015C25.3662 63.0683 23.1701 62.482 21.2314 61.3692C19.2927 60.2564 17.6789 58.6557 16.5501 56.7263ZM27.6015 5.23792C25.4215 5.23899 23.2797 5.81029 21.3887 6.89508C19.4977 7.97987 17.9234 9.54042 16.822 11.4218L7.30093 27.8086C6.21189 29.6877 5.63837 31.8211 5.63837 33.993C5.63837 36.1649 6.21189 38.2983 7.30093 40.1775L16.822 56.5643C17.9234 58.4457 19.4977 60.0062 21.3887 61.091C23.2797 62.1758 25.4215 62.7471 27.6015 62.7482H46.6436C48.8238 62.7471 50.9658 62.1758 52.8569 61.091C54.7481 60.0062 56.3227 58.4457 57.4243 56.5643L66.9453 40.1775C68.0344 38.2983 68.6079 36.1649 68.6079 33.993C68.6079 31.8211 68.0344 29.6877 66.9453 27.8086L57.4254 11.4218C56.3237 9.54024 54.749 7.9796 52.8576 6.89481C50.9662 5.81003 48.824 5.23883 46.6436 5.23792H27.6015Z" fill="white"/>
<path id="Vector_6" d="M39.6208 29.8247L30.0839 39.3004C29.8747 39.5092 29.7087 39.7572 29.5954 40.0302C29.4821 40.3032 29.4238 40.5959 29.4238 40.8914C29.4238 41.187 29.4821 41.4797 29.5954 41.7527C29.7087 42.0257 29.8747 42.2737 30.0839 42.4824C30.5109 42.9027 31.086 43.1382 31.6851 43.1382C32.2842 43.1382 32.8593 42.9027 33.2863 42.4824L42.8232 33.0067C43.0324 32.7979 43.1984 32.5499 43.3117 32.2769C43.425 32.0039 43.4833 31.7113 43.4833 31.4157C43.4833 31.1201 43.425 30.8275 43.3117 30.5545C43.1984 30.2814 43.0324 30.0335 42.8232 29.8247C42.3965 29.4039 41.8213 29.168 41.222 29.168C40.6227 29.168 40.0475 29.4039 39.6208 29.8247Z" fill="white"/>
<path id="Vector_7" d="M33.8429 42.782C33.7932 42.8398 33.739 42.8935 33.6809 42.9428L28.7567 47.8353C28.493 48.0967 28.1368 48.2433 27.7655 48.2433C27.3942 48.2433 27.038 48.0967 26.7743 47.8353L24.6945 45.768C24.5647 45.6389 24.4617 45.4855 24.3913 45.3164C24.321 45.1474 24.2848 44.9661 24.2848 44.783C24.2848 44.6 24.321 44.4187 24.3913 44.2496C24.4617 44.0806 24.5647 43.9271 24.6945 43.7981L27.1323 41.3762L27.1244 41.3694L32.3567 36.1711C31.5879 35.8123 30.7277 35.6973 29.8917 35.8415C29.0556 35.9857 28.2837 36.3821 27.6794 36.9776L22.7575 41.8701C22.3732 42.2516 22.0683 42.7055 21.8602 43.2054C21.6521 43.7053 21.5449 44.2415 21.5449 44.783C21.5449 45.3245 21.6521 45.8607 21.8602 46.3607C22.0683 46.8606 22.3732 47.3144 22.7575 47.696L24.8373 49.7633C25.6178 50.535 26.6712 50.9679 27.7689 50.9679C28.8666 50.9679 29.92 50.535 30.7005 49.7633L35.6248 44.8708C36.2283 44.2747 36.6308 43.5052 36.7764 42.6694C36.922 41.8337 36.8033 40.9734 36.437 40.2083L33.8429 42.782Z" fill="white"/>
<path id="Vector_8" d="M41.7013 26.8908L41.7081 26.8976L44.0949 24.5267C44.8291 24.7652 45.62 24.7651 46.3542 24.5265C47.0884 24.2878 47.7282 23.8229 48.1819 23.1983C48.6356 22.5736 48.8799 21.8214 48.8797 21.0494C48.8796 20.2774 48.635 19.5252 48.1811 18.9008C47.7272 18.2763 47.0873 17.8116 46.353 17.5732C45.6187 17.3348 44.8278 17.335 44.0937 17.5738C43.3595 17.8125 42.7198 18.2776 42.2662 18.9023C41.8126 19.527 41.5685 20.2793 41.5687 21.0513C41.5692 21.6441 41.7154 22.2276 41.9947 22.7505L37.2812 27.4345C36.6835 28.0305 36.2847 28.7967 36.1393 29.6281C35.9939 30.4595 36.1091 31.3155 36.469 32.0789L41.7013 26.8908ZM45.2514 19.2388C45.6095 19.2409 45.9589 19.3489 46.2556 19.5492C46.5523 19.7496 46.783 20.0334 46.9186 20.3647C47.0542 20.6961 47.0887 21.0602 47.0176 21.4111C46.9465 21.762 46.7731 22.084 46.5192 22.3365C46.2654 22.5889 45.9424 22.7605 45.5911 22.8296C45.2398 22.8987 44.8759 22.8623 44.5453 22.7248C44.2147 22.5873 43.9322 22.355 43.7335 22.0572C43.5348 21.7593 43.4288 21.4093 43.4288 21.0513C43.4306 20.5694 43.6235 20.1079 43.9652 19.7681C44.3069 19.4283 44.7695 19.2379 45.2514 19.2388Z" fill="white"/>
<path id="Vector_9" d="M51.5634 23.875C51.1099 23.8735 50.6604 23.9614 50.2408 24.1336C49.8212 24.3058 49.4396 24.5589 49.1179 24.8786C48.7961 25.1983 48.5404 25.5782 48.3655 25.9967C48.1905 26.4151 48.0997 26.864 48.0982 27.3175C48.0989 27.6951 48.1624 28.0699 48.2863 28.4265L43.2839 33.3972C43.2336 33.4547 43.179 33.5085 43.1208 33.558L40.5312 36.1317C41.3011 36.4972 42.1651 36.6159 43.005 36.4715C43.8449 36.3271 44.6196 35.9268 45.2232 35.3252L50.1305 30.4542C50.5991 30.6731 51.1109 30.7837 51.6281 30.7779C52.1453 30.772 52.6546 30.6499 53.1181 30.4205C53.5817 30.1911 53.9877 29.8603 54.306 29.4526C54.6243 29.045 54.8469 28.5709 54.9571 28.0656C55.0673 27.5602 55.0624 27.0366 54.9427 26.5334C54.823 26.0302 54.5916 25.5604 54.2657 25.1588C53.9398 24.7572 53.5276 24.4341 53.0599 24.2134C52.5921 23.9928 52.0806 23.8802 51.5634 23.8841V23.875Z" fill="white"/>
</g>
</svg>
