<svg width="74" height="68" viewBox="0 0 74 68" fill="none" xmlns="http://www.w3.org/2000/svg">
<g id="Group 1000004190">
<g id="Vector" style="mix-blend-mode:overlay">
<path d="M14.4415 61.4197C14.6055 61.4201 14.7667 61.3767 14.9083 61.294C15.1231 61.1692 15.2795 60.9643 15.3432 60.7242C15.407 60.4841 15.3728 60.2286 15.2482 60.0137L3.57655 39.7929C2.56273 38.03 2.02915 36.032 2.02915 33.9984C2.02915 31.9648 2.56273 29.9668 3.57655 28.204L5.24652 25.3127C5.36085 25.0981 5.38736 24.8474 5.32045 24.6136C5.25355 24.3798 5.09845 24.1811 4.88788 24.0594C4.67731 23.9378 4.42771 23.9026 4.19174 23.9614C3.95576 24.0202 3.75185 24.1684 3.623 24.3746L1.95417 27.267C0.776207 29.3149 0.15625 31.636 0.15625 33.9984C0.15625 36.3609 0.776207 38.682 1.95417 40.7298L13.6235 60.9518C13.7066 61.0949 13.8259 61.2136 13.9696 61.2958C14.1132 61.3779 14.276 61.4207 14.4415 61.4197Z" fill="white"/>
</g>
<g id="Vector_2" style="mix-blend-mode:overlay">
<path d="M59.4863 8.45436C59.6507 8.45404 59.8121 8.41051 59.9544 8.32815C60.0967 8.24579 60.2148 8.12748 60.297 7.98508C60.3792 7.84268 60.4225 7.6812 60.4225 7.5168C60.4226 7.3524 60.3795 7.19086 60.2975 7.04838C59.1128 5.00419 57.4125 3.30665 55.3663 2.12533C53.3202 0.94401 50.9999 0.320265 48.6372 0.316406L28.4096 0.316406C28.1611 0.316406 27.9228 0.41512 27.7471 0.590832C27.5714 0.766543 27.4727 1.00486 27.4727 1.25335C27.4727 1.50185 27.5714 1.74016 27.7471 1.91587C27.9228 2.09159 28.1611 2.1903 28.4096 2.1903H48.6372C50.671 2.19371 52.6682 2.73068 54.4294 3.74758C56.1907 4.76449 57.6543 6.22572 58.674 7.98532C58.7562 8.128 58.8746 8.24647 59.0173 8.32882C59.1599 8.41116 59.3217 8.45446 59.4863 8.45436Z" fill="white"/>
</g>
<path id="Vector_3" d="M48.6381 67.685C51.0007 67.6813 53.3209 67.0578 55.3671 65.8767C57.4132 64.6955 59.1136 62.9982 60.2984 60.9541L71.9678 40.7322C73.1457 38.6843 73.7657 36.3632 73.7657 34.0007C73.7657 31.6383 73.1457 29.3172 71.9678 27.2693L69.1422 22.375C69.0807 22.2684 68.9987 22.175 68.9011 22.1C68.8035 22.0251 68.6921 21.9701 68.5732 21.9382C68.4543 21.9064 68.3303 21.8982 68.2083 21.9142C68.0862 21.9303 67.9686 21.9702 67.862 22.0317C67.7554 22.0933 67.6619 22.1752 67.587 22.2728C67.512 22.3704 67.4571 22.4819 67.4252 22.6007C67.3933 22.7196 67.3852 22.8436 67.4012 22.9657C67.4172 23.0877 67.4571 23.2054 67.5187 23.312L70.3442 28.2063C71.3586 29.969 71.8925 31.967 71.8925 34.0007C71.8925 36.0345 71.3586 38.0325 70.3442 39.7952L58.6749 60.016C57.6551 61.7756 56.1916 63.2369 54.4303 64.2538C52.6691 65.2707 50.6718 65.8077 48.6381 65.8111C48.3896 65.8111 48.1513 65.9098 47.9756 66.0855C47.7999 66.2612 47.7012 66.4995 47.7012 66.748C47.7012 66.9965 47.7999 67.2348 47.9756 67.4105C48.1513 67.5862 48.3896 67.685 48.6381 67.685Z" fill="white"/>
<path id="Vector_4" d="M16.5172 56.7366L7.05483 40.3417C5.94527 38.4126 5.36133 36.2261 5.36133 34.0006C5.36133 31.7751 5.94527 29.5886 7.05483 27.6595L16.5172 11.2703C17.6326 9.34391 19.2341 7.74406 21.1616 6.63068C23.0891 5.51731 25.2751 4.92942 27.5011 4.92578H46.4213C48.6473 4.92942 50.8333 5.51731 52.7608 6.63068C54.6884 7.74406 56.2899 9.34391 57.4052 11.2703L66.8676 27.6595C67.9772 29.5886 68.5611 31.7751 68.5611 34.0006C68.5611 36.2261 67.9772 38.4126 66.8676 40.3417L57.4086 56.7366C56.2931 58.6628 54.6916 60.2625 52.7641 61.3759C50.8366 62.4892 48.6507 63.0772 46.4247 63.0811H27.5045C25.278 63.0778 23.0914 62.4901 21.1632 61.3767C19.2351 60.2633 17.633 58.6633 16.5172 56.7366ZM27.5011 5.24641C25.3304 5.24981 23.1985 5.82278 21.3186 6.90809C19.4386 7.99339 17.8764 9.55302 16.788 11.4312L7.32559 27.8204C6.24338 29.7021 5.67383 31.8349 5.67383 34.0057C5.67383 36.1765 6.24338 38.3092 7.32559 40.191L16.788 56.5802C17.8764 58.4584 19.4386 60.018 21.3186 61.1033C23.1985 62.1886 25.3304 62.7616 27.5011 62.765H46.4213C48.5921 62.7616 50.7239 62.1886 52.6039 61.1033C54.4838 60.018 56.046 58.4584 57.1345 56.5802L66.5969 40.191C67.6791 38.3092 68.2486 36.1765 68.2486 34.0057C68.2486 31.8349 67.6791 29.7021 66.5969 27.8204L57.1379 11.4255C56.0494 9.54736 54.4872 7.98773 52.6073 6.90242C50.7273 5.81712 48.5955 5.24414 46.4247 5.24074L27.5011 5.24641Z" fill="white"/>
<path id="Vector_5" d="M14.034 60.7192L2.36464 40.4983C1.22742 38.5217 0.628906 36.2813 0.628906 34.0009C0.628906 31.7205 1.22742 29.48 2.36464 27.5034L14.034 7.28261C15.1771 5.3095 16.8181 3.67096 18.7929 2.53077C20.7677 1.39057 23.0072 0.788651 25.2876 0.785156H48.6365C50.9168 0.788651 53.1563 1.39057 55.1311 2.53077C57.1059 3.67096 58.7469 5.3095 59.89 7.28261L71.565 27.5068C72.7023 29.4834 73.3008 31.7239 73.3008 34.0043C73.3008 36.2847 72.7023 38.5251 71.565 40.5017L59.89 60.7192C58.7469 62.6923 57.1059 64.3308 55.1311 65.471C53.1563 66.6112 50.9168 67.2131 48.6365 67.2166H25.2876C23.0072 67.2131 20.7677 66.6112 18.7929 65.471C16.8181 64.3308 15.1771 62.6923 14.034 60.7192ZM25.2876 1.7221C23.1717 1.7255 21.0938 2.28402 19.2614 3.34189C17.429 4.39975 15.9062 5.91991 14.8452 7.75051L3.17018 27.9713C2.11519 29.8055 1.55996 31.8844 1.55996 34.0003C1.55996 36.1162 2.11519 38.1951 3.17018 40.0293L14.8452 60.249C15.906 62.0798 17.4287 63.6 19.2612 64.6579C21.0937 65.7158 23.1717 66.2742 25.2876 66.2774H48.6365C50.7524 66.2742 52.8304 65.7158 54.6628 64.6579C56.4953 63.6 58.018 62.0798 59.0788 60.249L70.7539 40.0282C71.8088 38.194 72.3641 36.1151 72.3641 33.9992C72.3641 31.8833 71.8088 29.8044 70.7539 27.9702L59.0788 7.75051C58.0178 5.91991 56.4951 4.39975 54.6627 3.34189C52.8302 2.28402 50.7523 1.7255 48.6365 1.7221H25.2876Z" fill="white"/>
<path id="Vector_6" d="M32.5168 30.7157V19.8496C32.5361 18.5975 33.0471 17.4032 33.9394 16.5246C34.8316 15.6459 36.0337 15.1534 37.2859 15.1534C38.5382 15.1534 39.7402 15.6459 40.6325 16.5246C41.5248 17.4032 42.0358 18.5975 42.0551 19.8496V24.7576C42.066 25.1588 42.233 25.54 42.5207 25.82C42.8083 26.0999 43.1939 26.2566 43.5953 26.2566C43.9967 26.2566 44.3823 26.0999 44.67 25.82C44.9576 25.54 45.1247 25.1588 45.1356 24.7576V19.8496C45.1107 17.7841 44.2728 15.8116 42.8034 14.3598C41.334 12.9079 39.3516 12.0938 37.2859 12.0938C35.2203 12.0937 33.2379 12.9079 31.7685 14.3598C30.2991 15.8116 29.4611 17.7841 29.4363 19.8496V30.7157H26.5371V50.8119H48.0348V30.7157H32.5168ZM37.2854 46.9101C36.1683 46.9101 35.0763 46.5788 34.1475 45.9582C33.2188 45.3375 32.4949 44.4554 32.0674 43.4234C31.64 42.3913 31.5282 41.2557 31.7462 40.1601C31.9642 39.0645 32.5023 38.0582 33.2922 37.2684C34.0822 36.4786 35.0886 35.9408 36.1843 35.723C37.2799 35.5052 38.4155 35.6172 39.4474 36.0448C40.4794 36.4725 41.3614 37.1965 41.9818 38.1254C42.6023 39.0543 42.9333 40.1464 42.9331 41.2635C42.9331 42.0051 42.787 42.7394 42.5032 43.4246C42.2193 44.1097 41.8033 44.7323 41.2789 45.2566C40.7544 45.781 40.1318 46.1969 39.4466 46.4806C38.7614 46.7643 38.027 46.9102 37.2854 46.9101Z" fill="white"/>
<path id="Vector_7" d="M40.9743 41.0133C40.9743 41.0133 37.5381 37.6722 37.3942 37.5476C37.2503 37.423 37.0543 37.5476 37.0543 37.5476L36.8595 37.7424L35.5283 39.1088C35.5283 39.1088 33.8141 40.9045 33.6192 41.1152C33.5931 41.1409 33.5728 41.1719 33.5597 41.2061C33.5467 41.2403 33.5411 41.277 33.5435 41.3135C33.5459 41.3501 33.5561 41.3857 33.5734 41.418C33.5908 41.4502 33.6149 41.4783 33.6442 41.5004C33.6442 41.5004 36.9376 44.6727 37.0192 44.7633C37.3761 45.178 37.6185 44.837 37.6185 44.837C37.6185 44.837 40.835 41.4868 40.972 41.3497C41.1091 41.2127 40.9743 41.0133 40.9743 41.0133ZM36.3066 43.2905C36.2507 43.2907 36.1954 43.2795 36.144 43.2577C36.0926 43.2359 36.0462 43.2039 36.0075 43.1636L34.4214 41.6454L34.3953 41.6228C34.3383 41.5866 34.2917 41.5363 34.2599 41.4767C34.2281 41.4172 34.2123 41.3504 34.214 41.2829C34.2131 41.1843 34.2491 41.089 34.3149 41.0155V41.0087L36.8991 38.335C36.9342 38.2881 36.9788 38.2492 37.03 38.2208C37.0811 38.1923 37.1377 38.175 37.1961 38.17C37.2544 38.1649 37.3131 38.1722 37.3684 38.1915C37.4237 38.2107 37.4744 38.2414 37.517 38.2815C37.5596 38.3216 37.5932 38.3703 37.6157 38.4244C37.6383 38.4784 37.6491 38.5366 37.6476 38.5951C37.646 38.6536 37.6321 38.7112 37.6068 38.764C37.5815 38.8168 37.5454 38.8636 37.5007 38.9014L37.4565 38.9456L35.4863 41.0042C35.4257 41.0552 35.3855 41.1264 35.373 41.2047C35.364 41.2534 35.3677 41.3036 35.3838 41.3505C35.3999 41.3973 35.4278 41.4392 35.4648 41.4721L36.4437 42.4113L36.5875 42.5699C36.6472 42.6275 36.6882 42.7015 36.7054 42.7826C36.7227 42.8636 36.7153 42.948 36.6842 43.0248C36.6532 43.1016 36.5999 43.1674 36.5312 43.2138C36.4625 43.2601 36.3815 43.2848 36.2986 43.2848L36.3066 43.2905ZM38.2326 40.9532C38.3054 41.027 38.3463 41.1265 38.3463 41.2302C38.3463 41.3339 38.3054 41.4334 38.2326 41.5072L37.5653 42.1745C37.4918 42.2479 37.3922 42.2892 37.2883 42.2892C37.1844 42.2892 37.0848 42.2479 37.0113 42.1745L36.344 41.5072C36.2706 41.4337 36.2293 41.3341 36.2293 41.2302C36.2293 41.1263 36.2706 41.0267 36.344 40.9532L37.0113 40.287C37.0848 40.2136 37.1844 40.1724 37.2883 40.1724C37.3922 40.1724 37.4918 40.2136 37.5653 40.287L38.2326 40.9532ZM37.6378 44.1255C37.601 44.1704 37.5553 44.2071 37.5034 44.2333C37.4516 44.2594 37.3949 44.2745 37.3369 44.2774C37.2789 44.2803 37.221 44.271 37.1668 44.2502C37.1126 44.2294 37.0634 44.1974 37.0223 44.1564C36.9812 44.1154 36.9492 44.0662 36.9282 44.0121C36.9073 43.958 36.8979 43.9 36.9007 43.842C36.9035 43.7841 36.9184 43.7273 36.9445 43.6754C36.9706 43.6236 37.0072 43.5777 37.0521 43.5409L39.0494 41.4528C39.1101 41.4018 39.1503 41.3306 39.1627 41.2523C39.1723 41.2037 39.169 41.1534 39.1531 41.1065C39.1372 41.0596 39.1093 41.0177 39.0721 40.9849L38.0921 40.0457L37.9482 39.8871C37.8702 39.809 37.8265 39.7031 37.8266 39.5927C37.8267 39.4823 37.8707 39.3765 37.9488 39.2985C38.0269 39.2206 38.1328 39.1768 38.2432 39.1769C38.3536 39.177 38.4594 39.221 38.5373 39.2991L40.1235 40.8354C40.1235 40.8354 40.3229 41.0257 40.3229 41.1753C40.3238 41.2739 40.2878 41.3692 40.2221 41.4426L40.2164 41.4494L37.6378 44.1255Z" fill="white"/>
</g>
</svg>
