<svg width="74" height="68" viewBox="0 0 74 68" fill="none" xmlns="http://www.w3.org/2000/svg">
<g id="Group 1000004189">
<path id="Vector" d="M14.117 60.7231L2.36718 40.5023C1.22341 38.5279 0.621094 36.2865 0.621094 34.0048C0.621094 31.723 1.22341 29.4817 2.36718 27.5073L14.117 7.28651C15.2743 5.30913 16.929 3.66902 18.9165 2.52917C20.904 1.38932 23.1552 0.789414 25.4464 0.789062H48.9438C51.2349 0.789414 53.4861 1.38932 55.4737 2.52917C57.4612 3.66902 59.1159 5.30913 60.2732 7.28651L72.0174 27.5107C73.1611 29.4851 73.7634 31.7264 73.7634 34.0082C73.7634 36.2899 73.1611 38.5313 72.0174 40.5056L60.2732 60.7231C59.1157 62.7003 57.461 64.3403 55.4735 65.4801C53.486 66.62 51.2349 67.22 48.9438 67.2205H25.443C23.1525 67.2194 20.9021 66.6191 18.9152 65.4793C16.9284 64.3395 15.2742 62.6998 14.117 60.7231ZM25.4464 1.72601C23.3211 1.72693 21.233 2.28381 19.3894 3.34134C17.5458 4.39886 16.011 5.92025 14.9372 7.75442L3.18403 27.9753C2.12261 29.8072 1.56364 31.887 1.56364 34.0042C1.56364 36.1215 2.12261 38.2012 3.18403 40.0332L14.9338 60.2529C16.0074 62.0872 17.5422 63.6087 19.3858 64.6663C21.2294 65.7238 23.3176 66.2806 25.443 66.2813H48.9438C51.0688 66.2803 53.1566 65.7234 54.9998 64.6659C56.843 63.6083 58.3774 62.087 59.4507 60.2529L71.2005 40.0321C72.2619 38.2001 72.8209 36.1204 72.8209 34.0031C72.8209 31.8858 72.2619 29.8061 71.2005 27.9741L59.4507 7.75442C58.3772 5.9205 56.8428 4.39927 54.9996 3.34175C53.1564 2.28423 51.0687 1.72722 48.9438 1.72601H25.4464Z" fill="white"/>
<g id="Vector_2" style="mix-blend-mode:overlay">
<path d="M12.3511 12.1936C12.5166 12.1939 12.6792 12.1507 12.8228 12.0684C12.9663 11.9861 13.0858 11.8675 13.1691 11.7246L15.3387 7.98583C16.3708 6.22284 17.8461 4.76047 19.6181 3.7439C21.3901 2.72732 23.3972 2.19191 25.44 2.19081H48.9453C50.9882 2.19191 52.9952 2.72732 54.7672 3.7439C56.5392 4.76047 58.0145 6.22284 59.0466 7.98583L60.2487 10.0637C60.375 10.279 60.5813 10.4356 60.8227 10.4993C61.064 10.5629 61.3208 10.5285 61.5369 10.4035C61.6435 10.3421 61.737 10.2601 61.8119 10.1624C61.8868 10.0647 61.9416 9.95314 61.9732 9.83415C62.0048 9.71515 62.0125 9.59109 61.996 9.4691C61.9794 9.3471 61.9389 9.22958 61.8767 9.12331L60.6724 7.05115C59.4742 5.00415 57.7616 3.30605 55.7045 2.12534C53.6473 0.944637 51.3172 0.322379 48.9453 0.320313L25.4446 0.320312C23.0714 0.321309 20.7398 0.943177 18.6814 2.12414C16.6229 3.30511 14.9093 5.00408 13.7106 7.05228L11.5399 10.791C11.4781 10.8977 11.4381 11.0155 11.422 11.1377C11.406 11.2599 11.4142 11.384 11.4464 11.503C11.4785 11.622 11.5338 11.7335 11.6092 11.831C11.6845 11.9285 11.7784 12.0102 11.8855 12.0712C12.0275 12.1515 12.1879 12.1937 12.3511 12.1936Z" fill="white"/>
</g>
<g id="Vector_3" style="mix-blend-mode:overlay">
<path d="M6.08431 46.8966C6.24932 46.8964 6.41143 46.8531 6.55448 46.7708C6.66152 46.7097 6.75543 46.6281 6.83079 46.5305C6.90615 46.433 6.96148 46.3216 6.9936 46.2026C7.02571 46.0836 7.03398 45.9594 7.01792 45.8372C7.00186 45.715 6.9618 45.5972 6.90004 45.4906L3.59409 39.8009C2.57372 38.0403 2.03637 36.0414 2.03637 34.0065C2.03637 31.9715 2.57372 29.9726 3.59409 28.212L6.77655 22.7353C6.83855 22.629 6.87895 22.5115 6.89542 22.3896C6.91189 22.2676 6.90411 22.1436 6.87253 22.0246C6.84095 21.9057 6.78618 21.7941 6.71138 21.6964C6.63658 21.5987 6.54323 21.5167 6.43667 21.4551C6.22059 21.3301 5.96384 21.2957 5.72249 21.3594C5.48113 21.4231 5.27479 21.5797 5.1485 21.795L1.96605 27.2717C0.780556 29.3172 0.15625 31.6394 0.15625 34.0036C0.15625 36.3678 0.780556 38.6901 1.96605 40.7356L5.26632 46.4332C5.35037 46.5751 5.4701 46.6925 5.61361 46.7738C5.75711 46.8551 5.91938 46.8974 6.08431 46.8966Z" fill="white"/>
</g>
<g id="Vector_4" style="mix-blend-mode:overlay">
<path d="M39.3038 67.6886H48.9441C51.3171 67.6878 53.6487 67.0662 55.7072 65.8854C57.7656 64.7046 59.4793 63.0058 60.678 60.9578L71.0524 43.1025C71.1145 42.9963 71.1551 42.8787 71.1716 42.7567C71.1882 42.6347 71.1804 42.5107 71.1488 42.3917C71.1172 42.2727 71.0624 42.1611 70.9875 42.0634C70.9127 41.9657 70.8192 41.8837 70.7125 41.8223C70.4964 41.6973 70.2397 41.6629 69.9983 41.7266C69.757 41.7903 69.5506 41.9469 69.4243 42.1622L59.0499 60.0163C58.0179 61.7806 56.5421 63.2441 54.7692 64.2613C52.9963 65.2785 50.9881 65.8141 48.9441 65.8147H39.3061C39.0576 65.8147 38.8193 65.9134 38.6436 66.0891C38.4679 66.2648 38.3691 66.5032 38.3691 66.7517C38.3691 67.0002 38.4679 67.2385 38.6436 67.4142C38.8193 67.5899 39.0576 67.6886 39.3061 67.6886H39.3038Z" fill="white"/>
</g>
<path id="Vector_5" d="M16.6164 56.7395L7.09287 40.3446C5.97529 38.4169 5.38672 36.2283 5.38672 34.0001C5.38672 31.7719 5.97529 29.5832 7.09287 27.6556L16.6164 11.2664C17.7453 9.33656 19.3593 7.73566 21.2983 6.62266C23.2373 5.50967 25.4337 4.92333 27.6695 4.92188H46.7154C48.9511 4.92333 51.1476 5.50967 53.0866 6.62266C55.0256 7.73566 56.6396 9.33656 57.7685 11.2664L67.2977 27.6613C68.4153 29.5889 69.0038 31.7776 69.0038 34.0058C69.0038 36.2339 68.4153 38.4226 67.2977 40.3503L57.7685 56.7395C56.6396 58.6693 55.0256 60.2702 53.0866 61.3832C51.1476 62.4962 48.9511 63.0825 46.7154 63.084H27.6695C25.4337 63.0825 23.2373 62.4962 21.2983 61.3832C19.3593 60.2702 17.7453 58.6693 16.6164 56.7395ZM27.6695 5.2493C25.4891 5.25037 23.347 5.82175 21.4557 6.90669C19.5644 7.99164 17.9899 9.55242 16.8883 11.4341L7.36478 27.8176C6.27603 29.6972 5.70269 31.8308 5.70269 34.0029C5.70269 36.175 6.27603 38.3087 7.36478 40.1882L16.8883 56.5775C17.9899 58.4591 19.5644 60.0199 21.4557 61.1048C23.347 62.1898 25.4891 62.7611 27.6695 62.7622H46.7154C48.8958 62.7611 51.0379 62.1898 52.9292 61.1048C54.8204 60.0199 56.395 58.4591 57.4965 56.5775L67.0201 40.1882C68.1089 38.3087 68.6822 36.175 68.6822 34.0029C68.6822 31.8308 68.1089 29.6972 67.0201 27.8176L57.4965 11.4284C56.395 9.54675 54.8204 7.98597 52.9292 6.90103C51.0379 5.81608 48.8958 5.24471 46.7154 5.24363L27.6695 5.2493Z" fill="white"/>
<path id="Vector_6" d="M47.4951 36.818C47.4002 36.8938 47.3212 36.9877 47.2628 37.0943C47.2043 37.2008 47.1675 37.3178 47.1546 37.4387C47.1416 37.5595 47.1527 37.6817 47.1873 37.7982C47.2218 37.9147 47.2791 38.0232 47.3558 38.1175C51.3404 43.0209 52.0077 46.3449 51.2078 47.1391C50.0749 48.2596 44.7772 46.2441 39.0343 40.5374C37.9075 39.4218 36.8503 38.2379 35.8688 36.9924C35.7162 36.7994 35.4936 36.6742 35.2493 36.6441C35.005 36.614 34.7587 36.6814 34.5637 36.8316C34.4674 36.9057 34.3867 36.9983 34.3264 37.1038C34.2661 37.2093 34.2272 37.3258 34.2122 37.4464C34.1971 37.567 34.2061 37.6894 34.2386 37.8066C34.2711 37.9237 34.3266 38.0332 34.4017 38.1288C35.4301 39.434 36.538 40.6747 37.7189 41.8437C40.4777 44.5855 43.4494 46.806 46.0858 48.0953C47.869 48.9688 49.2138 49.2849 50.2278 49.2849C51.3528 49.2849 52.07 48.8952 52.5232 48.4454C54.814 46.1693 52.1028 41.0178 48.8014 36.9562C48.6458 36.7657 48.4213 36.6443 48.1767 36.6185C47.9321 36.5926 47.6872 36.6643 47.4951 36.818Z" fill="white"/>
<path id="Vector_7" d="M35.0511 22.4538C35.2762 22.554 35.5318 22.5609 35.762 22.473C35.9922 22.3851 36.1782 22.2095 36.2792 21.9848C38.8011 16.3608 41.4262 14.3057 42.4764 14.6297C43.0644 14.8155 43.7725 16.004 43.8303 18.7446C43.888 21.4636 43.3034 24.8987 42.1841 28.4075C41.7061 29.9141 41.1355 31.3897 40.4756 32.826C40.4246 32.9362 40.3959 33.0554 40.3911 33.1767C40.3863 33.298 40.4055 33.4191 40.4476 33.533C40.4897 33.6469 40.5539 33.7514 40.6364 33.8404C40.719 33.9294 40.8184 34.0013 40.9288 34.0518C41.1525 34.1538 41.4075 34.1635 41.6383 34.0786C41.8691 33.9938 42.0571 33.8213 42.1614 33.5986C42.8552 32.0924 43.4557 30.5449 43.9594 28.9649C45.1388 25.2692 45.754 21.6256 45.6917 18.706C45.6045 14.5436 44.2019 13.2339 43.0406 12.868C39.9975 11.9129 36.6768 16.5614 34.582 21.2336C34.5326 21.3445 34.5055 21.4641 34.5023 21.5855C34.4991 21.7069 34.5199 21.8277 34.5634 21.941C34.607 22.0544 34.6725 22.158 34.7562 22.246C34.8398 22.334 34.9401 22.4046 35.0511 22.4538Z" fill="white"/>
<path id="Vector_8" d="M28.518 40.1861C28.5096 40.0642 28.4769 39.9451 28.4218 39.8359C28.3668 39.7268 28.2905 39.6297 28.1974 39.5504C28.1043 39.4712 27.9963 39.4113 27.8798 39.3744C27.7632 39.3374 27.6405 39.3241 27.5187 39.3353C21.6025 39.7885 17.6904 38.6329 17.457 37.296C17.1851 35.7348 21.897 32.5875 29.9002 31.2075C31.4673 30.9352 33.0495 30.7585 34.6381 30.6784C34.8829 30.6666 35.1129 30.558 35.2775 30.3765C35.4422 30.1951 35.528 29.9556 35.5162 29.7109C35.5043 29.4662 35.3957 29.2362 35.2143 29.0715C35.0328 28.9068 34.7934 28.821 34.5487 28.8329C32.8833 28.9162 31.2246 29.1012 29.5818 29.3869C19.7716 31.0784 15.1345 34.8035 15.625 37.6109C16.1009 40.3425 20.5579 41.276 25.0421 41.276C25.9235 41.276 26.8072 41.2398 27.6626 41.1729C27.9068 41.1552 28.134 41.0414 28.2943 40.8564C28.4547 40.6714 28.5351 40.4304 28.518 40.1861Z" fill="white"/>
<path id="Vector_9" d="M38.9654 43.9181C38.7389 43.8215 38.4834 43.8186 38.2547 43.9099C38.0261 44.0012 37.8429 44.1793 37.7452 44.4053C35.3966 49.8706 32.5336 52.797 31.2262 52.3869C30.6903 52.2147 30.2689 51.3831 30.0525 50.121C30.8121 49.9368 31.4918 49.512 31.9903 48.91C32.4888 48.3079 32.7793 47.5609 32.8187 46.7803C32.8581 45.9997 32.6441 45.2272 32.2087 44.5781C31.7733 43.929 31.1398 43.438 30.4025 43.1783C31.0055 40.0776 31.9816 37.0612 33.3097 34.1952C33.361 34.0849 33.39 33.9656 33.395 33.8441C33.4 33.7226 33.3808 33.6013 33.3387 33.4873C33.2966 33.3732 33.2323 33.2686 33.1495 33.1795C33.0668 33.0904 32.9672 33.0186 32.8565 32.9682C32.6326 32.8651 32.3769 32.855 32.1455 32.9399C31.9141 33.0248 31.7257 33.1979 31.6216 33.4214C30.2031 36.485 29.1677 39.7118 28.5389 43.0288C27.7278 43.1672 26.9881 43.5774 26.441 44.1919C25.8939 44.8064 25.5722 45.5887 25.5285 46.4103C25.4849 47.2318 25.722 48.0438 26.201 48.7128C26.6799 49.3818 27.3721 49.868 28.1638 50.0915C28.5547 52.8956 29.7205 53.8518 30.6563 54.152C30.9233 54.2374 31.202 54.2806 31.4823 54.2801C34.446 54.2801 37.5696 49.5217 39.4548 45.1372C39.5036 45.0251 39.5297 44.9045 39.5314 44.7822C39.5332 44.66 39.5107 44.5387 39.4651 44.4252C39.4196 44.3118 39.352 44.2086 39.2662 44.1215C39.1804 44.0344 39.0781 43.9653 38.9654 43.9181ZM27.381 46.5975C27.3785 46.2416 27.4818 45.893 27.6777 45.5959C27.8737 45.2988 28.1534 45.0665 28.4815 44.9286C28.8096 44.7907 29.1713 44.7533 29.5207 44.8212C29.8701 44.8892 30.1914 45.0593 30.4439 45.3101C30.6965 45.5609 30.8689 45.881 30.9392 46.2299C31.0096 46.5788 30.9747 46.9407 30.8391 47.2698C30.7035 47.5989 30.4732 47.8802 30.1774 48.0782C29.8816 48.2762 29.5338 48.3819 29.1778 48.3819C28.7032 48.3828 28.2475 48.1955 27.9107 47.861C27.5739 47.5266 27.3834 47.0722 27.381 46.5975Z" fill="white"/>
<path id="Vector_10" d="M57.8489 28.0055C57.5917 26.9575 56.5721 25.6331 53.2605 25.1165C53.0643 24.4832 52.672 23.9287 52.1402 23.5328C51.6084 23.137 50.9646 22.9204 50.3017 22.9142C49.6387 22.908 48.991 23.1126 48.4519 23.4985C47.9128 23.8843 47.5102 24.4315 47.3023 25.061C46.8876 25.1006 46.4719 25.1403 46.0561 25.1969C45.8235 25.2276 45.6114 25.3456 45.4627 25.527C45.314 25.7084 45.2399 25.9396 45.2555 26.1736C45.2711 26.4077 45.3751 26.627 45.5465 26.7871C45.7179 26.9472 45.9439 27.0361 46.1784 27.0357C46.2205 27.0358 46.2625 27.0332 46.3042 27.0277C46.6316 26.9847 46.9534 26.9564 47.2774 26.9224C47.4671 27.5637 47.8574 28.1273 48.3909 28.5306C48.9245 28.9338 49.5732 29.1554 50.242 29.1629C50.9107 29.1704 51.5643 28.9633 52.1067 28.5721C52.6492 28.1809 53.0519 27.6261 53.2559 26.9892C55.1117 27.3234 55.9218 27.9386 56.0464 28.4428C56.1925 29.0399 55.5377 30.2555 53.214 31.7283C50.8903 33.2012 47.6467 34.4757 44.0485 35.3481C42.5034 35.726 40.9366 36.0086 39.3569 36.1944C39.1195 36.2176 38.9003 36.3318 38.7452 36.5131C38.5901 36.6943 38.5112 36.9285 38.525 37.1667C38.5387 37.4048 38.6441 37.6284 38.8191 37.7906C38.994 37.9527 39.2249 38.0409 39.4634 38.0366C39.5013 38.0372 39.5391 38.0353 39.5767 38.0309C41.2322 37.8355 42.8743 37.5392 44.4937 37.1438C48.2846 36.225 51.7378 34.8553 54.2178 33.2861C57.7401 31.0542 58.1367 29.1815 57.8489 28.0055ZM50.2729 27.3132C50.0209 27.3117 49.7751 27.2355 49.5663 27.0944C49.3576 26.9533 49.1953 26.7535 49.1 26.5203C49.0046 26.287 48.9805 26.0308 49.0306 25.7838C49.0807 25.5369 49.2028 25.3103 49.3816 25.1327C49.5603 24.9551 49.7876 24.8344 50.0348 24.7858C50.2821 24.7372 50.5382 24.763 50.7708 24.8597C51.0035 24.9565 51.2022 25.12 51.3421 25.3296C51.4819 25.5393 51.5565 25.7856 51.5565 26.0376C51.555 26.3768 51.419 26.7016 51.1784 26.9408C50.9378 27.1799 50.6121 27.3139 50.2729 27.3132Z" fill="white"/>
<path id="Vector_11" d="M25.8699 29.4692C26.0387 29.4698 26.2045 29.4242 26.3492 29.3373C26.494 29.2504 26.6122 29.1255 26.691 28.9762C26.7698 28.8269 26.8062 28.6589 26.7962 28.4903C26.7863 28.3218 26.7304 28.1592 26.6346 28.0202C23.1293 22.9774 22.7214 19.693 23.5507 18.9736C23.9722 18.6088 24.8865 18.6745 26.0625 19.1243C25.9125 19.5254 25.8358 19.9502 25.8359 20.3784C25.8403 21.0851 26.0495 21.7753 26.4382 22.3654C26.8269 22.9556 27.3784 23.4203 28.0259 23.7034C28.6733 23.9865 29.389 24.0757 30.0862 23.9604C30.7833 23.845 31.4321 23.5299 31.9538 23.0533C34.299 25.1542 36.3841 27.5284 38.1646 30.1252C38.3036 30.3286 38.5174 30.4688 38.7593 30.5153C39.0012 30.5618 39.2517 30.5107 39.4562 30.3733C39.5572 30.3057 39.6438 30.2188 39.7111 30.1175C39.7784 30.0163 39.8249 29.9027 39.8481 29.7834C39.8713 29.6641 39.8706 29.5413 39.8461 29.4223C39.8216 29.3032 39.7738 29.1902 39.7054 29.0897C37.7825 26.2855 35.5206 23.7295 32.9712 21.4797C33.1465 20.9336 33.1897 20.3537 33.0974 19.7876C33.005 19.2215 32.7796 18.6855 32.4398 18.2234C32.0999 17.7614 31.6553 17.3866 31.1425 17.1298C30.6296 16.873 30.0632 16.7415 29.4896 16.7462C28.6433 16.745 27.8227 17.0377 27.1682 17.5744C24.516 16.4324 23.0772 16.932 22.3283 17.5812C19.9321 19.6602 22.1912 24.8796 25.104 29.0704C25.1899 29.1938 25.3045 29.2946 25.4379 29.3641C25.5713 29.4335 25.7195 29.4696 25.8699 29.4692ZM29.4953 18.5929C29.848 18.5952 30.1921 18.7018 30.4843 18.8994C30.7765 19.097 31.0035 19.3767 31.1369 19.7032C31.2703 20.0297 31.304 20.3885 31.2337 20.7341C31.1635 21.0797 30.9924 21.3968 30.7421 21.6453C30.4919 21.8939 30.1736 22.0627 29.8275 22.1306C29.4814 22.1984 29.1229 22.1623 28.7973 22.0266C28.4717 21.891 28.1936 21.6619 27.998 21.3684C27.8025 21.0749 27.6982 20.73 27.6984 20.3773C27.7011 19.9038 27.891 19.4506 28.2265 19.1165C28.5621 18.7825 29.0161 18.5946 29.4896 18.5941L29.4953 18.5929Z" fill="white"/>
</g>
</svg>
