<svg width="20" height="20" viewBox="0 0 20 20" fill="none" xmlns="http://www.w3.org/2000/svg">
<g id="icons">
<path id="Vector" d="M6.66683 3.33332H6.00033C5.0669 3.33332 4.59985 3.33332 4.24333 3.51498C3.92972 3.67477 3.67494 3.92955 3.51515 4.24315C3.3335 4.59967 3.3335 5.06673 3.3335 6.00015V6.66666M6.66683 3.33332H13.3335M6.66683 3.33332V1.66666M13.3335 3.33332H14.0003C14.9337 3.33332 15.3998 3.33332 15.7563 3.51498C16.0699 3.67477 16.3256 3.92955 16.4854 4.24315C16.6668 4.59933 16.6668 5.06582 16.6668 5.99742V6.66666M13.3335 3.33332V1.66666M3.3335 6.66666V14.0002C3.3335 14.9336 3.3335 15.4 3.51515 15.7566C3.67494 16.0702 3.92972 16.3254 4.24333 16.4852C4.5995 16.6667 5.06599 16.6667 5.99759 16.6667H14.0027C14.9343 16.6667 15.4002 16.6667 15.7563 16.4852C16.0699 16.3254 16.3256 16.0702 16.4854 15.7566C16.6668 15.4004 16.6668 14.9346 16.6668 14.003V6.66666M3.3335 6.66666H16.6668M13.3335 13.3333H13.3352L13.3351 13.335L13.3335 13.335V13.3333ZM10.0002 13.3333H10.0018L10.0018 13.335L10.0002 13.335V13.3333ZM6.66683 13.3333H6.6685L6.66846 13.335L6.66683 13.335V13.3333ZM13.3351 9.99999V10.0017L13.3335 10.0016V9.99999H13.3351ZM10.0002 9.99999H10.0018L10.0018 10.0017L10.0002 10.0016V9.99999ZM6.66683 9.99999H6.6685L6.66846 10.0017L6.66683 10.0016V9.99999Z" stroke="#00BFFF" stroke-width="1.66667" stroke-linecap="round" stroke-linejoin="round"/>
</g>
</svg>
