<svg width="21" height="20" viewBox="0 0 21 20" fill="none" xmlns="http://www.w3.org/2000/svg">
<g id="icons">
<g id="Vector">
<path d="M4.28993 6.37086L4.01391 9.40707C3.97302 9.85673 3.95241 10.0835 3.98983 10.2987C4.02327 10.491 4.09005 10.676 4.18747 10.8451C4.29691 11.0352 4.45869 11.1969 4.78039 11.5186L9.09331 15.8316C9.74917 16.4874 10.0773 16.8155 10.4566 16.9388C10.7914 17.0476 11.1525 17.0478 11.4873 16.939C11.8678 16.8154 12.1985 16.4851 12.8585 15.8251L16.1584 12.5252C16.8184 11.8652 17.1479 11.5353 17.2715 11.1548C17.3803 10.8201 17.3796 10.4593 17.2709 10.1246C17.1472 9.74402 16.8182 9.41422 16.1582 8.75419L11.8559 4.45192C11.5313 4.12728 11.3689 3.96494 11.178 3.85499C11.0089 3.75758 10.8239 3.69051 10.6316 3.65708C10.4145 3.61934 10.1858 3.64009 9.72859 3.68165L6.70374 3.95664C5.91644 4.02821 5.52254 4.06416 5.21448 4.23546C4.94288 4.3865 4.71897 4.61041 4.56794 4.88201C4.39748 5.18853 4.36193 5.57964 4.29107 6.35911L4.28993 6.37086Z" stroke="#00BFFF" stroke-width="1.66667" stroke-linecap="round" stroke-linejoin="round"/>
<path d="M8.42716 8.09415C8.75259 7.76871 8.75259 7.24108 8.42716 6.91564C8.10172 6.5902 7.57371 6.5902 7.24827 6.91564C6.92283 7.24108 6.92252 7.76859 7.24796 8.09402C7.57339 8.41946 8.10172 8.41959 8.42716 8.09415Z" stroke="#00BFFF" stroke-width="1.66667" stroke-linecap="round" stroke-linejoin="round"/>
</g>
</g>
</svg>
