<svg width="16" height="16" viewBox="0 0 16 16" fill="none" xmlns="http://www.w3.org/2000/svg">
<g id="Misc Icons / Social">
<path id="Vector" fill-rule="evenodd" clip-rule="evenodd" d="M8 0.00109863C3.58352 0.00109863 0 3.58461 0 8.0011C0 12.4176 3.58352 16.0011 8 16.0011C12.4078 16.0011 16 12.4176 16 8.0011C16 3.58461 12.4078 0.00109863 8 0.00109863ZM13.2842 3.68873C14.2386 4.85142 14.8113 6.33515 14.8287 7.94035C14.6031 7.897 12.347 7.4371 10.0737 7.72345C10.0217 7.61065 9.9783 7.48915 9.92625 7.3677C9.7874 7.038 9.63125 6.6996 9.47505 6.37855C11.9913 5.3547 13.1367 3.87962 13.2842 3.68873ZM8 1.18114C9.73535 1.18114 11.3232 1.8319 12.5293 2.89915C12.4078 3.07268 11.3752 4.45229 8.94575 5.36335C7.82645 3.30695 6.5857 1.62366 6.3948 1.36335C6.9067 1.24188 7.4447 1.18114 8 1.18114ZM5.0933 1.82322C5.2755 2.06617 6.49025 3.75815 7.6269 5.77115C4.43384 6.6215 1.61388 6.60415 1.31019 6.60415C1.75271 4.487 3.18438 2.72561 5.0933 1.82322ZM1.16269 8.0098C1.16269 7.94035 1.16269 7.87095 1.16269 7.80155C1.4577 7.8102 4.77224 7.8536 8.1822 6.82975C8.3818 7.2115 8.564 7.60195 8.73755 7.9924C8.65075 8.01845 8.5553 8.0445 8.46855 8.0705C4.94577 9.20715 3.07158 12.3134 2.9154 12.5737C1.8308 11.3677 1.16269 9.7625 1.16269 8.0098ZM8 14.8384C6.4208 14.8384 4.96312 14.3004 3.80911 13.398C3.93058 13.1464 5.31885 10.474 9.17135 9.1291C9.1887 9.1204 9.1974 9.1204 9.21475 9.11175C10.1779 11.6019 10.5683 13.693 10.6725 14.2917C9.84815 14.6475 8.94575 14.8384 8 14.8384ZM11.8091 13.667C11.7397 13.2505 11.3752 11.2549 10.4816 8.79935C12.6248 8.46095 14.4989 9.0163 14.7332 9.0944C14.4382 10.9946 13.3449 12.6345 11.8091 13.667Z" fill="white"/>
</g>
</svg>
