<svg width="16" height="16" viewBox="0 0 16 16" fill="none" xmlns="http://www.w3.org/2000/svg">
<g id="Misc Icons / Social" clip-path="url(#clip0_1758_182)">
<path id="Vector" d="M16 8.0011C16 3.58282 12.4183 0.00109863 8 0.00109863C3.58172 0.00109863 0 3.58282 0 8.0011C0 11.9941 2.92547 15.3038 6.75 15.9039V10.3136H4.71875V8.0011H6.75V6.2386C6.75 4.2336 7.94438 3.1261 9.77172 3.1261C10.6467 3.1261 11.5625 3.28235 11.5625 3.28235V5.2511H10.5538C9.56 5.2511 9.25 5.86782 9.25 6.5011V8.0011H11.4688L11.1141 10.3136H9.25V15.9039C13.0745 15.3038 16 11.9941 16 8.0011Z" fill="white"/>
<path id="Vector_2" d="M11.1141 10.3136L11.4688 8.0011H9.25V6.5011C9.25 5.86844 9.56 5.2511 10.5538 5.2511H11.5625V3.28235C11.5625 3.28235 10.647 3.1261 9.77172 3.1261C7.94438 3.1261 6.75 4.2336 6.75 6.2386V8.0011H4.71875V10.3136H6.75V15.9039C7.5783 16.0335 8.4217 16.0335 9.25 15.9039V10.3136H11.1141Z" fill="#002175"/>
</g>
<defs>
<clipPath id="clip0_1758_182">
<rect width="16" height="16" fill="white" transform="translate(0 0.00109863)"/>
</clipPath>
</defs>
</svg>
