<svg width="24" height="24" viewBox="0 0 24 24" fill="none" xmlns="http://www.w3.org/2000/svg">
<g id="globe">
<path id="Icon" d="M12 21.0011C16.9706 21.0011 21 16.9717 21 12.0011C21 7.03054 16.9706 3.0011 12 3.0011M12 21.0011C7.02944 21.0011 3 16.9717 3 12.0011C3 7.03054 7.02944 3.0011 12 3.0011M12 21.0011C9.82538 21.0011 8.0625 16.9717 8.0625 12.0011C8.0625 7.03054 9.82538 3.0011 12 3.0011M12 21.0011C14.1746 21.0011 15.9375 16.9717 15.9375 12.0011C15.9375 7.03054 14.1746 3.0011 12 3.0011M4.6875 16.3755C6.33632 15.4313 9.07573 14.8136 12.1764 14.8136C15.4124 14.8136 18.255 15.4865 19.875 16.5011M4.6875 7.62668C6.33632 8.57085 9.07573 9.1886 12.1764 9.1886C15.4124 9.1886 18.255 8.5157 19.875 7.5011" stroke="white" stroke-width="2"/>
</g>
</svg>
