<svg width="16" height="16" viewBox="0 0 16 16" fill="none" xmlns="http://www.w3.org/2000/svg">
<g clip-path="url(#clip0_1758_192)">
<path d="M8 1.44172C10.1375 1.44172 10.3906 1.4511 11.2313 1.4886C12.0125 1.52297 12.4344 1.65422 12.7156 1.7636C13.0875 1.90735 13.3563 2.08235 13.6344 2.36047C13.9156 2.64172 14.0875 2.90735 14.2313 3.27922C14.3406 3.56047 14.4719 3.98547 14.5063 4.7636C14.5438 5.60735 14.5531 5.86047 14.5531 7.99485C14.5531 10.1323 14.5438 10.3855 14.5063 11.2261C14.4719 12.0073 14.3406 12.4292 14.2313 12.7105C14.0875 13.0823 13.9125 13.3511 13.6344 13.6292C13.3531 13.9105 13.0875 14.0823 12.7156 14.2261C12.4344 14.3355 12.0094 14.4667 11.2313 14.5011C10.3875 14.5386 10.1344 14.548 8 14.548C5.8625 14.548 5.60938 14.5386 4.76875 14.5011C3.9875 14.4667 3.56563 14.3355 3.28438 14.2261C2.9125 14.0823 2.64375 13.9073 2.36563 13.6292C2.08438 13.348 1.9125 13.0823 1.76875 12.7105C1.65938 12.4292 1.52813 12.0042 1.49375 11.2261C1.45625 10.3823 1.44688 10.1292 1.44688 7.99485C1.44688 5.85735 1.45625 5.60422 1.49375 4.7636C1.52813 3.98235 1.65938 3.56047 1.76875 3.27922C1.9125 2.90735 2.0875 2.6386 2.36563 2.36047C2.64688 2.07922 2.9125 1.90735 3.28438 1.7636C3.56563 1.65422 3.99063 1.52297 4.76875 1.4886C5.60938 1.4511 5.8625 1.44172 8 1.44172ZM8 0.00109863C5.82813 0.00109863 5.55625 0.0104736 4.70313 0.0479736C3.85313 0.0854736 3.26875 0.222974 2.7625 0.419849C2.23438 0.626099 1.7875 0.897974 1.34375 1.34485C0.896875 1.7886 0.625 2.23547 0.41875 2.76047C0.221875 3.26985 0.084375 3.8511 0.046875 4.7011C0.009375 5.55735 0 5.82922 0 8.0011C0 10.173 0.009375 10.4448 0.046875 11.298C0.084375 12.148 0.221875 12.7323 0.41875 13.2386C0.625 13.7667 0.896875 14.2136 1.34375 14.6573C1.7875 15.1011 2.23438 15.3761 2.75938 15.5792C3.26875 15.7761 3.85 15.9136 4.7 15.9511C5.55313 15.9886 5.825 15.998 7.99688 15.998C10.1688 15.998 10.4406 15.9886 11.2938 15.9511C12.1438 15.9136 12.7281 15.7761 13.2344 15.5792C13.7594 15.3761 14.2063 15.1011 14.65 14.6573C15.0938 14.2136 15.3688 13.7667 15.5719 13.2417C15.7688 12.7324 15.9063 12.1511 15.9438 11.3011C15.9813 10.448 15.9906 10.1761 15.9906 8.00422C15.9906 5.83235 15.9813 5.56047 15.9438 4.70735C15.9063 3.85735 15.7688 3.27297 15.5719 2.76672C15.375 2.23547 15.1031 1.7886 14.6563 1.34485C14.2125 0.901099 13.7656 0.626099 13.2406 0.422974C12.7313 0.226099 12.15 0.0885986 11.3 0.0510986C10.4438 0.0104736 10.1719 0.00109863 8 0.00109863Z" fill="white"/>
<path d="M8 3.89172C5.73125 3.89172 3.89062 5.73235 3.89062 8.0011C3.89062 10.2698 5.73125 12.1105 8 12.1105C10.2688 12.1105 12.1094 10.2698 12.1094 8.0011C12.1094 5.73235 10.2688 3.89172 8 3.89172ZM8 10.6667C6.52813 10.6667 5.33437 9.47297 5.33437 8.0011C5.33437 6.52922 6.52813 5.33547 8 5.33547C9.47188 5.33547 10.6656 6.52922 10.6656 8.0011C10.6656 9.47297 9.47188 10.6667 8 10.6667Z" fill="white"/>
<path d="M13.2312 3.72924C13.2312 4.26049 12.8 4.68862 12.2719 4.68862C11.7406 4.68862 11.3125 4.25737 11.3125 3.72924C11.3125 3.19799 11.7438 2.76987 12.2719 2.76987C12.8 2.76987 13.2312 3.20112 13.2312 3.72924Z" fill="white"/>
</g>
<defs>
<clipPath id="clip0_1758_192">
<rect width="16" height="16" fill="white" transform="translate(0 0.00109863)"/>
</clipPath>
</defs>
</svg>
