<svg width="16" height="16" viewBox="0 0 16 16" fill="none" xmlns="http://www.w3.org/2000/svg">
<g id="Misc Icons / Social" clip-path="url(#clip0_1758_197)">
<path id="Vector" d="M14.8189 0.00109863H1.18111C0.867861 0.00109863 0.567441 0.125537 0.34594 0.347038C0.124438 0.56854 0 0.86896 0 1.18221V14.82C0 15.1332 0.124438 15.4337 0.34594 15.6552C0.567441 15.8767 0.867861 16.0011 1.18111 16.0011H14.8189C15.1321 16.0011 15.4326 15.8767 15.6541 15.6552C15.8756 15.4337 16 15.1332 16 14.82V1.18221C16 0.86896 15.8756 0.56854 15.6541 0.347038C15.4326 0.125537 15.1321 0.00109863 14.8189 0.00109863ZM4.76889 13.6311H2.36333V5.98999H4.76889V13.6311ZM3.56445 4.9311C3.29158 4.92956 3.02528 4.84723 2.79916 4.69449C2.57304 4.54175 2.39723 4.32545 2.29392 4.07289C2.19061 3.82033 2.16443 3.54283 2.21869 3.2754C2.27294 3.00798 2.4052 2.76262 2.59877 2.57029C2.79234 2.37796 3.03854 2.24728 3.30631 2.19474C3.57408 2.1422 3.85141 2.17016 4.1033 2.27509C4.35519 2.38002 4.57036 2.55721 4.72164 2.78431C4.87293 3.0114 4.95355 3.27823 4.95333 3.5511C4.95591 3.73379 4.92167 3.91512 4.85267 4.0843C4.78368 4.25348 4.68132 4.40703 4.55171 4.53581C4.42211 4.66459 4.2679 4.76595 4.09828 4.83387C3.92867 4.90178 3.74711 4.93485 3.56445 4.9311ZM13.6356 13.6378H11.2311V9.46332C11.2311 8.23221 10.7078 7.85221 10.0322 7.85221C9.31889 7.85221 8.61889 8.38999 8.61889 9.49443V13.6378H6.21333V5.99554H8.52667V7.05443H8.55778C8.79 6.58443 9.60333 5.7811 10.8444 5.7811C12.1867 5.7811 13.6367 6.57777 13.6367 8.9111L13.6356 13.6378Z" fill="white"/>
</g>
<defs>
<clipPath id="clip0_1758_197">
<rect width="16" height="16" fill="white" transform="translate(0 0.00109863)"/>
</clipPath>
</defs>
</svg>
