<svg width="100%" height="100%" viewBox="0 0 48 48" fill="none" xmlns="http://www.w3.org/2000/svg">
<path d="M22.2841 29.7123L18.2799 25.7083C17.3359 24.7643 17.3359 23.2343 18.2799 22.2903L22.2841 18.2863C23.2281 17.3423 24.7582 17.3423 25.7022 18.2863L29.7064 22.2903C30.6504 23.2343 30.6504 24.7643 29.7064 25.7083L25.7022 29.7123C25.2302 30.1843 24.6123 30.4192 23.9943 30.4192C23.3764 30.4192 22.7584 30.1843 22.2864 29.7123M22.2864 42.4084C21.3423 41.4644 21.3423 39.9344 22.2864 38.9904L35.569 25.7083C36.5131 24.7643 36.5131 23.2343 35.569 22.2903L34.3491 21.0704L28.637 15.3585C27.6929 14.4145 27.6929 12.8845 28.637 11.9405C29.581 10.9965 31.1111 10.9965 32.0551 11.9405L42.4076 22.2926C43.3517 23.2366 43.3517 24.7666 42.4076 25.7106L25.7068 42.4107C25.2348 42.8827 24.6168 43.1175 23.9988 43.1175C23.3809 43.1175 22.7629 42.8804 22.2909 42.4107M15.9426 36.0626L5.5901 25.7106C4.64606 24.7666 4.64606 23.2366 5.5901 22.2926L22.2909 5.59248C23.235 4.64849 24.765 4.64849 25.7091 5.59248C26.6531 6.53648 26.6531 8.06649 25.7091 9.01049L12.4264 22.2926C11.4824 23.2366 11.4824 24.7666 12.4264 25.7106L13.6464 26.9305L19.3585 32.6424C20.3025 33.5864 20.3025 35.1164 19.3585 36.0604C18.8865 36.5324 18.2685 36.7672 17.6505 36.7672C17.0326 36.7672 16.4146 36.5324 15.9426 36.0604M22.2909 0.708325L0.708029 22.2903C-0.23601 23.2343 -0.23601 24.7643 0.708029 25.7083L22.2909 47.2903C23.235 48.2343 24.765 48.2343 25.7091 47.2903L47.292 25.7083C48.236 24.7643 48.236 23.2343 47.292 22.2903L25.7091 0.708325C25.237 0.236326 24.6191 0.00146484 24.0011 0.00146484C23.3832 0.00146484 22.7652 0.238606 22.2932 0.708325" fill="white"/>
</svg>
