<svg width="16" height="16" viewBox="0 0 16 16" fill="none" xmlns="http://www.w3.org/2000/svg">
<g id="Misc Icons / Social">
<path id="Vector" d="M5.03168 14.5016C11.0694 14.5016 14.3718 9.49932 14.3718 5.1614C14.3718 5.01932 14.3718 4.87789 14.3622 4.73709C15.0047 4.27239 15.5593 3.69701 16 3.03788C15.4009 3.30349 14.7654 3.47759 14.1146 3.55436C14.7999 3.14416 15.3128 2.49889 15.5578 1.73868C14.9134 2.12109 14.2084 2.39057 13.4733 2.53549C12.9783 2.0092 12.3237 1.66071 11.6108 1.54394C10.8978 1.42717 10.1663 1.54863 9.52931 1.88952C8.89234 2.23041 8.38548 2.77173 8.08716 3.42972C7.78884 4.0877 7.71569 4.82566 7.87904 5.5294C6.57393 5.46394 5.29717 5.12476 4.13164 4.53389C2.9661 3.94302 1.93784 3.11366 1.1136 2.09964C0.693819 2.82231 0.565248 3.6778 0.754066 4.49193C0.942885 5.30606 1.43489 6.01761 2.12992 6.48173C1.60749 6.46642 1.09643 6.32548 0.64 6.07085V6.11244C0.640207 6.87034 0.902567 7.60484 1.38258 8.19136C1.86259 8.77787 2.53071 9.18029 3.2736 9.33037C2.79032 9.46219 2.28325 9.48146 1.79136 9.38669C2.00121 10.0389 2.40962 10.6092 2.95949 11.018C3.50937 11.4267 4.17322 11.6534 4.85824 11.6664C4.17763 12.2013 3.39821 12.5969 2.56458 12.8304C1.73096 13.0638 0.859476 13.1307 0 13.027C1.50122 13.9903 3.24795 14.5013 5.03168 14.499" fill="white"/>
</g>
</svg>
