<svg width="16" height="16" viewBox="0 0 16 16" fill="none" xmlns="http://www.w3.org/2000/svg">
<g id="Misc Icons / Social" clip-path="url(#clip0_1758_199)">
<path id="Vector" d="M15.6811 4.12475C15.5906 3.78436 15.4123 3.47369 15.1641 3.22385C14.9159 2.97401 14.6063 2.79375 14.2665 2.70111C13.0156 2.36475 8.01562 2.36475 8.01562 2.36475C8.01562 2.36475 3.01563 2.36475 1.76472 2.70111C1.42491 2.79375 1.1154 2.97401 0.86715 3.22385C0.618902 3.47369 0.440629 3.78436 0.35017 4.12475C0.015625 5.38111 0.015625 8.00111 0.015625 8.00111C0.015625 8.00111 0.015625 10.6211 0.35017 11.8775C0.440629 12.2179 0.618902 12.5285 0.86715 12.7784C1.1154 13.0282 1.42491 13.2085 1.76472 13.3011C3.01563 13.6375 8.01562 13.6375 8.01562 13.6375C8.01562 13.6375 13.0156 13.6375 14.2665 13.3011C14.6063 13.2085 14.9159 13.0282 15.1641 12.7784C15.4123 12.5285 15.5906 12.2179 15.6811 11.8775C16.0156 10.6211 16.0156 8.00111 16.0156 8.00111C16.0156 8.00111 16.0156 5.38111 15.6811 4.12475Z" fill="white"/>
<path id="Vector_2" d="M6.37939 10.3802V5.62204L10.5612 8.00113L6.37939 10.3802Z" fill="#002175"/>
</g>
<defs>
<clipPath id="clip0_1758_199">
<rect width="16" height="16" fill="white" transform="translate(0 0.00109863)"/>
</clipPath>
</defs>
</svg>
