<svg width="44" height="44" viewBox="0 0 44 44" fill="none" xmlns="http://www.w3.org/2000/svg">
<g id="icons">
<path id="Vector" d="M22 10.0833V14.6667M22 10.0833C22 7.55203 24.052 5.5 26.5833 5.5C29.1146 5.5 31.1667 7.55203 31.1667 10.0833C31.1667 12.6146 29.1146 14.6667 26.5833 14.6667M22 10.0833C22 7.55203 19.948 5.5 17.4167 5.5C14.8854 5.5 12.8333 7.55203 12.8333 10.0833C12.8333 12.6146 14.8854 14.6667 17.4167 14.6667M22 14.6667H26.5833M22 14.6667H17.4167M22 14.6667V25.6667M26.5833 14.6667H32.6337C34.6872 14.6667 35.7125 14.6667 36.4969 15.0663C37.1868 15.4178 37.7492 15.9784 38.1007 16.6683C38.5 17.4519 38.5 18.4782 38.5 20.5277V25.6667M17.4167 14.6667H11.367C9.3135 14.6667 8.28597 14.6667 7.50163 15.0663C6.8117 15.4178 6.25118 15.9784 5.89964 16.6683C5.5 17.4526 5.5 18.4802 5.5 20.5337V25.6667M5.5 25.6667V30.8004C5.5 32.8539 5.5 33.8801 5.89964 34.6645C6.25118 35.3544 6.8117 35.9159 7.50163 36.2674C8.2852 36.6667 9.31149 36.6667 11.361 36.6667H22M5.5 25.6667H22M22 25.6667V36.6667M22 25.6667H38.5M22 36.6667H32.639C34.6885 36.6667 35.7133 36.6667 36.4969 36.2674C37.1868 35.9159 37.7492 35.3544 38.1007 34.6645C38.5 33.8809 38.5 32.8561 38.5 30.8066V25.6667" stroke="white" stroke-width="3" stroke-linecap="round" stroke-linejoin="round"/>
</g>
</svg>
