<svg width="44" height="44" viewBox="0 0 44 44" fill="none" xmlns="http://www.w3.org/2000/svg">
<g id="icons">
<path id="Vector" d="M7.33301 36.6667H20.0623M20.0623 36.6667H20.2703M20.0623 36.6667C20.097 36.6669 20.1316 36.6671 20.1663 36.6671C20.201 36.6671 20.2357 36.6669 20.2703 36.6667M20.0623 36.6667C13.0226 36.6108 7.33301 30.8859 7.33301 23.8329V16.3586C7.33301 15.4239 8.09027 14.6667 9.0249 14.6667H31.307C32.2416 14.6667 32.9997 15.4239 32.9997 16.3586V16.5M20.2703 36.6667H32.9997M20.2703 36.6667C27.3101 36.6108 32.9997 30.8859 32.9997 23.8329M32.9997 16.5H35.7497C38.281 16.5 40.333 18.552 40.333 21.0833C40.333 23.6146 38.281 25.6667 35.7497 25.6667H32.9997V23.8329M32.9997 16.5V23.8329M27.4997 5.5L25.6663 9.16667M21.9997 5.5L20.1663 9.16667M16.4997 5.5L14.6663 9.16667" stroke="white" stroke-width="3" stroke-linecap="round" stroke-linejoin="round"/>
</g>
</svg>
