<svg width="44" height="44" viewBox="0 0 44 44" fill="none" xmlns="http://www.w3.org/2000/svg">
<g id="icons">
<path id="Vector" d="M31.1667 36.6667C31.1667 33.6292 27.0626 31.1667 22 31.1667C16.9374 31.1667 12.8333 33.6292 12.8333 36.6667M38.5 31.1674C38.5 28.9121 36.2375 26.9738 33 26.1251M5.5 31.1674C5.5 28.9121 7.76251 26.9738 11 26.1251M33 18.7663C34.1252 17.7592 34.8333 16.2957 34.8333 14.6667C34.8333 11.6292 32.3709 9.16675 29.3333 9.16675C27.9247 9.16675 26.6397 9.69631 25.6667 10.5672M11 18.7663C9.87479 17.7592 9.16667 16.2957 9.16667 14.6667C9.16667 11.6292 11.6291 9.16675 14.6667 9.16675C16.0753 9.16675 17.3603 9.69631 18.3333 10.5672M22 25.6667C18.9624 25.6667 16.5 23.2043 16.5 20.1667C16.5 17.1292 18.9624 14.6667 22 14.6667C25.0376 14.6667 27.5 17.1292 27.5 20.1667C27.5 23.2043 25.0376 25.6667 22 25.6667Z" stroke="white" stroke-width="3" stroke-linecap="round" stroke-linejoin="round"/>
</g>
</svg>
