<svg width="165" height="164" viewBox="0 0 165 164" fill="none" xmlns="http://www.w3.org/2000/svg">
<g filter="url(#filter0_d_1550_38069)">
<g clip-path="url(#clip0_1550_38069)">
<path d="M152.845 8H12.8452V148H152.845V8Z" fill="white" fill-opacity="0.12"/>
<path d="M65.9501 17.6562H61.1226V22.4838H65.9501V17.6562Z" fill="white"/>
<path d="M70.7783 17.6562H65.9507V22.4838H70.7783V17.6562Z" fill="white"/>
<path d="M80.4335 17.6562H75.606V22.4838H80.4335V17.6562Z" fill="white"/>
<path d="M85.2597 17.6562H80.4321V22.4838H85.2597V17.6562Z" fill="white"/>
<path d="M90.0898 17.6562H85.2622V22.4838H90.0898V17.6562Z" fill="white"/>
<path d="M104.571 17.6562H99.7437V22.4838H104.571V17.6562Z" fill="white"/>
<path d="M65.9501 22.4844H61.1226V27.312H65.9501V22.4844Z" fill="white"/>
<path d="M70.7783 22.4844H65.9507V27.312H70.7783V22.4844Z" fill="white"/>
<path d="M75.6064 22.4844H70.7788V27.312H75.6064V22.4844Z" fill="white"/>
<path d="M80.4335 22.4844H75.606V27.312H80.4335V22.4844Z" fill="white"/>
<path d="M90.0898 22.4844H85.2622V27.312H90.0898V22.4844Z" fill="white"/>
<path d="M104.572 22.4844H99.7446V27.312H104.572V22.4844Z" fill="white"/>
<path d="M75.6064 27.3127H70.7788V32.1403H75.6064V27.3127Z" fill="white"/>
<path d="M90.0898 27.3125H85.2622V32.1401H90.0898V27.3125Z" fill="white"/>
<path d="M94.9169 27.3127H90.0894V32.1403H94.9169V27.3127Z" fill="white"/>
<path d="M65.9501 32.1406H61.1226V36.9682H65.9501V32.1406Z" fill="white"/>
<path d="M70.7783 32.1406H65.9507V36.9682H70.7783V32.1406Z" fill="white"/>
<path d="M75.6064 32.1406H70.7788V36.9682H75.6064V32.1406Z" fill="white"/>
<path d="M85.2597 32.1406H80.4321V36.9682H85.2597V32.1406Z" fill="white"/>
<path d="M90.0898 32.1406H85.2622V36.9682H90.0898V32.1406Z" fill="white"/>
<path d="M94.9169 32.1406H90.0894V36.9682H94.9169V32.1406Z" fill="white"/>
<path d="M99.7441 36.9648H94.9165V41.7924H99.7441V36.9648Z" fill="white"/>
<path d="M104.571 36.9648H99.7437V41.7924H104.571V36.9648Z" fill="white"/>
<path d="M65.9501 46.625H61.1226V51.4526H65.9501V46.625Z" fill="white"/>
<path d="M75.6064 46.6248H70.7788V51.4523H75.6064V46.6248Z" fill="white"/>
<path d="M85.2597 46.625H80.4321V51.4526H85.2597V46.625Z" fill="white"/>
<path d="M94.9169 46.6248H90.0894V51.4523H94.9169V46.6248Z" fill="white"/>
<path d="M104.571 46.625H99.7437V51.4526H104.571V46.625Z" fill="white"/>
<path d="M65.9501 51.4453H61.1226V56.2729H65.9501V51.4453Z" fill="white"/>
<path d="M85.2597 51.4453H80.4321V56.2729H85.2597V51.4453Z" fill="white"/>
<path d="M27.332 56.2773H22.5044V61.1049H27.332V56.2773Z" fill="white"/>
<path d="M36.9843 56.2773H32.1567V61.1049H36.9843V56.2773Z" fill="white"/>
<path d="M41.8134 56.2773H36.9858V61.1049H41.8134V56.2773Z" fill="white"/>
<path d="M51.4677 56.2773H46.6401V61.1049H51.4677V56.2773Z" fill="white"/>
<path d="M56.2949 56.2773H51.4673V61.1049H56.2949V56.2773Z" fill="white"/>
<path d="M61.123 56.2773H56.2954V61.1049H61.123V56.2773Z" fill="white"/>
<path d="M70.7783 56.2773H65.9507V61.1049H70.7783V56.2773Z" fill="white"/>
<path d="M85.2597 56.2773H80.4321V61.1049H85.2597V56.2773Z" fill="white"/>
<path d="M104.571 56.2773H99.7437V61.1049H104.571V56.2773Z" fill="white"/>
<path d="M114.227 56.2773H109.4V61.1049H114.227V56.2773Z" fill="white"/>
<path d="M128.71 56.2773H123.882V61.1049H128.71V56.2773Z" fill="white"/>
<path d="M138.366 56.2773H133.539V61.1049H138.366V56.2773Z" fill="white"/>
<path d="M143.192 56.2773H138.365V61.1049H143.192V56.2773Z" fill="white"/>
<path d="M27.332 61.1133H22.5044V65.9409H27.332V61.1133Z" fill="white"/>
<path d="M32.1591 61.1133H27.3315V65.9409H32.1591V61.1133Z" fill="white"/>
<path d="M65.9501 61.1133H61.1226V65.9409H65.9501V61.1133Z" fill="white"/>
<path d="M90.0898 61.1133H85.2622V65.9409H90.0898V61.1133Z" fill="white"/>
<path d="M104.571 61.1133H99.7437V65.9409H104.571V61.1133Z" fill="white"/>
<path d="M109.399 61.1133H104.572V65.9409H109.399V61.1133Z" fill="white"/>
<path d="M119.056 61.1133H114.228V65.9409H119.056V61.1133Z" fill="white"/>
<path d="M138.366 61.1133H133.539V65.9409H138.366V61.1133Z" fill="white"/>
<path d="M36.9843 65.9336H32.1567V70.7612H36.9843V65.9336Z" fill="white"/>
<path d="M41.8134 65.9336H36.9858V70.7612H41.8134V65.9336Z" fill="white"/>
<path d="M46.6396 65.9336H41.812V70.7612H46.6396V65.9336Z" fill="white"/>
<path d="M56.2949 65.9336H51.4673V70.7612H56.2949V65.9336Z" fill="white"/>
<path d="M65.9501 65.9336H61.1226V70.7612H65.9501V65.9336Z" fill="white"/>
<path d="M75.6064 65.9336H70.7788V70.7612H75.6064V65.9336Z" fill="white"/>
<path d="M90.0898 65.9336H85.2622V70.7612H90.0898V65.9336Z" fill="white"/>
<path d="M104.571 65.9336H99.7437V70.7612H104.571V65.9336Z" fill="white"/>
<path d="M109.399 65.9336H104.572V70.7612H109.399V65.9336Z" fill="white"/>
<path d="M119.056 65.9336H114.228V70.7612H119.056V65.9336Z" fill="white"/>
<path d="M123.881 65.9336H119.053V70.7612H123.881V65.9336Z" fill="white"/>
<path d="M27.332 70.7695H22.5044V75.5971H27.332V70.7695Z" fill="white"/>
<path d="M36.9843 70.7695H32.1567V75.5971H36.9843V70.7695Z" fill="white"/>
<path d="M51.4677 70.7695H46.6401V75.5971H51.4677V70.7695Z" fill="white"/>
<path d="M61.123 70.7695H56.2954V75.5971H61.123V70.7695Z" fill="white"/>
<path d="M80.4335 70.7695H75.606V75.5971H80.4335V70.7695Z" fill="white"/>
<path d="M90.0898 70.7695H85.2622V75.5971H90.0898V70.7695Z" fill="white"/>
<path d="M99.7441 70.7695H94.9165V75.5971H99.7441V70.7695Z" fill="white"/>
<path d="M104.571 70.7695H99.7437V75.5971H104.571V70.7695Z" fill="white"/>
<path d="M119.056 70.7695H114.228V75.5971H119.056V70.7695Z" fill="white"/>
<path d="M128.71 70.7695H123.882V75.5971H128.71V70.7695Z" fill="white"/>
<path d="M133.537 70.7695H128.709V75.5971H133.537V70.7695Z" fill="white"/>
<path d="M32.1591 75.6016H27.3315V80.4291H32.1591V75.6016Z" fill="white"/>
<path d="M36.9843 75.6016H32.1567V80.4291H36.9843V75.6016Z" fill="white"/>
<path d="M41.8134 75.6016H36.9858V80.4291H41.8134V75.6016Z" fill="white"/>
<path d="M56.2949 75.6016H51.4673V80.4291H56.2949V75.6016Z" fill="white"/>
<path d="M65.9501 75.6016H61.1226V80.4291H65.9501V75.6016Z" fill="white"/>
<path d="M70.7783 75.6016H65.9507V80.4291H70.7783V75.6016Z" fill="white"/>
<path d="M85.2597 75.6016H80.4321V80.4291H85.2597V75.6016Z" fill="white"/>
<path d="M90.0898 75.6016H85.2622V80.4291H90.0898V75.6016Z" fill="white"/>
<path d="M94.9169 75.6016H90.0894V80.4291H94.9169V75.6016Z" fill="white"/>
<path d="M99.7441 75.6016H94.9165V80.4291H99.7441V75.6016Z" fill="white"/>
<path d="M109.399 75.6016H104.572V80.4291H109.399V75.6016Z" fill="white"/>
<path d="M114.227 75.6016H109.399V80.4291H114.227V75.6016Z" fill="white"/>
<path d="M123.881 75.6016H119.053V80.4291H123.881V75.6016Z" fill="white"/>
<path d="M133.537 75.6016H128.709V80.4291H133.537V75.6016Z" fill="white"/>
<path d="M138.366 75.6016H133.539V80.4291H138.366V75.6016Z" fill="white"/>
<path d="M143.191 75.6016H138.364V80.4291H143.191V75.6016Z" fill="white"/>
<path d="M32.1591 80.4102H27.3315V85.2377H32.1591V80.4102Z" fill="white"/>
<path d="M41.8134 80.4102H36.9858V85.2377H41.8134V80.4102Z" fill="white"/>
<path d="M51.4677 80.4102H46.6401V85.2377H51.4677V80.4102Z" fill="white"/>
<path d="M61.123 80.4102H56.2954V85.2377H61.123V80.4102Z" fill="white"/>
<path d="M70.7783 80.4102H65.9507V85.2377H70.7783V80.4102Z" fill="white"/>
<path d="M80.4335 80.4102H75.606V85.2377H80.4335V80.4102Z" fill="white"/>
<path d="M85.2597 80.4102H80.4321V85.2377H85.2597V80.4102Z" fill="white"/>
<path d="M99.7431 80.4102H94.9155V85.2377H99.7431V80.4102Z" fill="white"/>
<path d="M104.571 80.4102H99.7437V85.2377H104.571V80.4102Z" fill="white"/>
<path d="M114.227 80.4102H109.4V85.2377H114.227V80.4102Z" fill="white"/>
<path d="M119.055 80.4102H114.227V85.2377H119.055V80.4102Z" fill="white"/>
<path d="M123.882 80.4102H119.054V85.2377H123.882V80.4102Z" fill="white"/>
<path d="M143.192 80.4102H138.365V85.2377H143.192V80.4102Z" fill="white"/>
<path d="M32.1591 85.2422H27.3315V90.0698H32.1591V85.2422Z" fill="white"/>
<path d="M36.9843 85.2422H32.1567V90.0698H36.9843V85.2422Z" fill="white"/>
<path d="M41.8144 85.2422H36.9868V90.0698H41.8144V85.2422Z" fill="white"/>
<path d="M46.6396 85.2422H41.812V90.0698H46.6396V85.2422Z" fill="white"/>
<path d="M56.2949 85.2422H51.4673V90.0698H56.2949V85.2422Z" fill="white"/>
<path d="M65.9501 85.2422H61.1226V90.0698H65.9501V85.2422Z" fill="white"/>
<path d="M75.6064 85.2422H70.7788V90.0698H75.6064V85.2422Z" fill="white"/>
<path d="M80.4335 85.2422H75.606V90.0698H80.4335V85.2422Z" fill="white"/>
<path d="M94.9169 85.2422H90.0894V90.0698H94.9169V85.2422Z" fill="white"/>
<path d="M123.882 85.2422H119.054V90.0698H123.882V85.2422Z" fill="white"/>
<path d="M133.537 85.2422H128.709V90.0698H133.537V85.2422Z" fill="white"/>
<path d="M138.366 85.2422H133.539V90.0698H138.366V85.2422Z" fill="white"/>
<path d="M27.332 90.0703H22.5044V94.8979H27.332V90.0703Z" fill="white"/>
<path d="M61.123 90.0703H56.2954V94.8979H61.123V90.0703Z" fill="white"/>
<path d="M80.4335 90.0703H75.606V94.8979H80.4335V90.0703Z" fill="white"/>
<path d="M104.571 90.0703H99.7437V94.8979H104.571V90.0703Z" fill="white"/>
<path d="M114.227 90.0703H109.399V94.8979H114.227V90.0703Z" fill="white"/>
<path d="M119.056 90.0703H114.228V94.8979H119.056V90.0703Z" fill="white"/>
<path d="M123.881 90.0703H119.053V94.8979H123.881V90.0703Z" fill="white"/>
<path d="M143.191 90.0703H138.364V94.8979H143.191V90.0703Z" fill="white"/>
<path d="M41.8134 94.8945H36.9858V99.7221H41.8134V94.8945Z" fill="white"/>
<path d="M56.2949 94.8945H51.4673V99.7221H56.2949V94.8945Z" fill="white"/>
<path d="M75.6064 94.8945H70.7788V99.7221H75.6064V94.8945Z" fill="white"/>
<path d="M85.2597 94.8945H80.4321V99.7221H85.2597V94.8945Z" fill="white"/>
<path d="M90.0898 94.8945H85.2622V99.7221H90.0898V94.8945Z" fill="white"/>
<path d="M99.7431 94.8945H94.9155V99.7221H99.7431V94.8945Z" fill="white"/>
<path d="M104.571 94.8945H99.7437V99.7221H104.571V94.8945Z" fill="white"/>
<path d="M109.399 94.8945H104.572V99.7221H109.399V94.8945Z" fill="white"/>
<path d="M114.227 94.8945H109.4V99.7221H114.227V94.8945Z" fill="white"/>
<path d="M119.055 94.8945H114.227V99.7221H119.055V94.8945Z" fill="white"/>
<path d="M123.882 94.8945H119.054V99.7221H123.882V94.8945Z" fill="white"/>
<path d="M128.71 94.8945H123.882V99.7221H128.71V94.8945Z" fill="white"/>
<path d="M133.538 94.8945H128.71V99.7221H133.538V94.8945Z" fill="white"/>
<path d="M138.366 94.8945H133.539V99.7221H138.366V94.8945Z" fill="white"/>
<path d="M143.192 94.8945H138.365V99.7221H143.192V94.8945Z" fill="white"/>
<path d="M65.9501 99.7305H61.1226V104.558H65.9501V99.7305Z" fill="white"/>
<path d="M70.7783 99.7305H65.9507V104.558H70.7783V99.7305Z" fill="white"/>
<path d="M75.6064 99.7305H70.7788V104.558H75.6064V99.7305Z" fill="white"/>
<path d="M104.572 99.7305H99.7446V104.558H104.572V99.7305Z" fill="white"/>
<path d="M123.882 99.7305H119.054V104.558H123.882V99.7305Z" fill="white"/>
<path d="M133.537 99.7305H128.709V104.558H133.537V99.7305Z" fill="white"/>
<path d="M143.192 99.7305H138.365V104.558H143.192V99.7305Z" fill="white"/>
<path d="M65.9501 104.559H61.1226V109.386H65.9501V104.559Z" fill="white"/>
<path d="M75.6064 104.559H70.7788V109.386H75.6064V104.559Z" fill="white"/>
<path d="M90.0898 104.559H85.2622V109.386H90.0898V104.559Z" fill="white"/>
<path d="M94.9169 104.559H90.0894V109.386H94.9169V104.559Z" fill="white"/>
<path d="M104.571 104.559H99.7437V109.386H104.571V104.559Z" fill="white"/>
<path d="M114.227 104.559H109.399V109.386H114.227V104.559Z" fill="white"/>
<path d="M123.881 104.559H119.053V109.386H123.881V104.559Z" fill="white"/>
<path d="M133.537 104.559H128.709V109.386H133.537V104.559Z" fill="white"/>
<path d="M138.366 104.559H133.539V109.386H138.366V104.559Z" fill="white"/>
<path d="M143.191 104.559H138.364V109.386H143.191V104.559Z" fill="white"/>
<path d="M65.9501 109.379H61.1226V114.206H65.9501V109.379Z" fill="white"/>
<path d="M80.4335 109.379H75.606V114.206H80.4335V109.379Z" fill="white"/>
<path d="M94.9169 109.379H90.0894V114.206H94.9169V109.379Z" fill="white"/>
<path d="M99.7441 109.379H94.9165V114.206H99.7441V109.379Z" fill="white"/>
<path d="M104.571 109.379H99.7437V114.206H104.571V109.379Z" fill="white"/>
<path d="M123.881 109.379H119.053V114.206H123.881V109.379Z" fill="white"/>
<path d="M143.191 109.379H138.364V114.206H143.191V109.379Z" fill="white"/>
<path d="M70.7783 114.203H65.9507V119.031H70.7783V114.203Z" fill="white"/>
<path d="M104.571 114.203H99.7437V119.031H104.571V114.203Z" fill="white"/>
<path d="M109.399 114.203H104.572V119.031H109.399V114.203Z" fill="white"/>
<path d="M114.227 114.203H109.399V119.031H114.227V114.203Z" fill="white"/>
<path d="M119.056 114.203H114.228V119.031H119.056V114.203Z" fill="white"/>
<path d="M123.881 114.203H119.053V119.031H123.881V114.203Z" fill="white"/>
<path d="M128.71 114.203H123.882V119.031H128.71V114.203Z" fill="white"/>
<path d="M138.366 114.203H133.539V119.031H138.366V114.203Z" fill="white"/>
<path d="M65.9501 119.039H61.1226V123.867H65.9501V119.039Z" fill="white"/>
<path d="M75.6064 119.039H70.7788V123.867H75.6064V119.039Z" fill="white"/>
<path d="M90.0898 119.039H85.2622V123.867H90.0898V119.039Z" fill="white"/>
<path d="M99.7431 119.039H94.9155V123.867H99.7431V119.039Z" fill="white"/>
<path d="M114.227 119.039H109.4V123.867H114.227V119.039Z" fill="white"/>
<path d="M123.882 119.039H119.054V123.867H123.882V119.039Z" fill="white"/>
<path d="M128.711 119.039H123.883V123.867H128.711V119.039Z" fill="white"/>
<path d="M133.538 119.039H128.71V123.867H133.538V119.039Z" fill="white"/>
<path d="M138.365 119.039H133.538V123.867H138.365V119.039Z" fill="white"/>
<path d="M143.192 119.039H138.365V123.867H143.192V119.039Z" fill="white"/>
<path d="M65.9501 123.863H61.1226V128.691H65.9501V123.863Z" fill="white"/>
<path d="M70.7783 123.863H65.9507V128.691H70.7783V123.863Z" fill="white"/>
<path d="M90.0898 123.863H85.2622V128.691H90.0898V123.863Z" fill="white"/>
<path d="M99.7441 123.863H94.9165V128.691H99.7441V123.863Z" fill="white"/>
<path d="M104.571 123.863H99.7437V128.691H104.571V123.863Z" fill="white"/>
<path d="M109.399 123.863H104.572V128.691H109.399V123.863Z" fill="white"/>
<path d="M114.227 123.863H109.399V128.691H114.227V123.863Z" fill="white"/>
<path d="M123.881 123.863H119.053V128.691H123.881V123.863Z" fill="white"/>
<path d="M133.537 123.863H128.709V128.691H133.537V123.863Z" fill="white"/>
<path d="M138.366 123.863H133.539V128.691H138.366V123.863Z" fill="white"/>
<path d="M80.4335 128.691H75.606V133.519H80.4335V128.691Z" fill="white"/>
<path d="M85.2597 128.691H80.4321V133.519H85.2597V128.691Z" fill="white"/>
<path d="M90.0898 128.691H85.2622V133.519H90.0898V128.691Z" fill="white"/>
<path d="M94.9169 128.691H90.0894V133.519H94.9169V128.691Z" fill="white"/>
<path d="M109.399 128.691H104.572V133.519H109.399V128.691Z" fill="white"/>
<path d="M114.227 128.691H109.399V133.519H114.227V128.691Z" fill="white"/>
<path d="M123.881 128.691H119.053V133.519H123.881V128.691Z" fill="white"/>
<path d="M133.537 128.691H128.709V133.519H133.537V128.691Z" fill="white"/>
<path d="M65.9501 133.523H61.1226V138.351H65.9501V133.523Z" fill="white"/>
<path d="M70.7783 133.523H65.9507V138.351H70.7783V133.523Z" fill="white"/>
<path d="M80.4335 133.523H75.606V138.351H80.4335V133.523Z" fill="white"/>
<path d="M85.2597 133.523H80.4321V138.351H85.2597V133.523Z" fill="white"/>
<path d="M119.055 133.523H114.227V138.351H119.055V133.523Z" fill="white"/>
<path d="M123.882 133.523H119.054V138.351H123.882V133.523Z" fill="white"/>
<path d="M128.71 133.523H123.882V138.351H128.71V133.523Z" fill="white"/>
<path d="M133.538 133.523H128.71V138.351H133.538V133.523Z" fill="white"/>
<path d="M138.366 133.523H133.539V138.351H138.366V133.523Z" fill="white"/>
<path d="M143.192 133.523H138.365V138.351H143.192V133.523Z" fill="white"/>
<path d="M51.2285 17.6562H27.5734H22.5044V22.7252V46.3804V51.4494H27.5734H51.2285H56.2975V46.3804V22.7252V17.6562H51.2285ZM51.2285 46.3804H27.5734V22.7252H51.2285V46.3804Z" fill="white"/>
<path d="M138.124 17.6562H114.469H109.4V22.7252V46.3804V51.4494H114.469H138.124H143.193V46.3804V22.7252V17.6562H138.124ZM138.124 46.3804H114.469V22.7252H138.124V46.3804Z" fill="white"/>
<path d="M51.2285 104.559H27.5734H22.5044V109.628V133.283V138.352H27.5734H51.2285H56.2975V133.283V109.628V104.559H51.2285ZM51.2285 133.283H27.5734V109.628H51.2285V133.283Z" fill="white"/>
<path d="M46.6395 27.3125H32.1567V41.7953H46.6395V27.3125Z" fill="white"/>
<path d="M133.536 27.3125H119.053V41.7953H133.536V27.3125Z" fill="white"/>
<path d="M46.6395 114.203H32.1567V128.686H46.6395V114.203Z" fill="white"/>
</g>
</g>
<defs>
<filter id="filter0_d_1550_38069" x="0.846191" y="0" width="164" height="164" filterUnits="userSpaceOnUse" color-interpolation-filters="sRGB">
<feFlood flood-opacity="0" result="BackgroundImageFix"/>
<feColorMatrix in="SourceAlpha" type="matrix" values="0 0 0 0 0 0 0 0 0 0 0 0 0 0 0 0 0 0 127 0" result="hardAlpha"/>
<feOffset dy="4"/>
<feGaussianBlur stdDeviation="6"/>
<feComposite in2="hardAlpha" operator="out"/>
<feColorMatrix type="matrix" values="0 0 0 0 0 0 0 0 0 0 0 0 0 0 0 0 0 0 0.12 0"/>
<feBlend mode="normal" in2="BackgroundImageFix" result="effect1_dropShadow_1550_38069"/>
<feBlend mode="normal" in="SourceGraphic" in2="effect1_dropShadow_1550_38069" result="shape"/>
</filter>
<clipPath id="clip0_1550_38069">
<rect x="12.8462" y="8" width="140" height="140" rx="11.6667" fill="white"/>
</clipPath>
</defs>
</svg>
