<svg width="122" height="122" viewBox="0 0 122 122" fill="none" xmlns="http://www.w3.org/2000/svg">
<path d="M43.9501 0.65625H39.1226V5.48384H43.9501V0.65625Z" fill="white"/>
<path d="M48.7783 0.65625H43.9507V5.48384H48.7783V0.65625Z" fill="white"/>
<path d="M58.4335 0.65625H53.606V5.48384H58.4335V0.65625Z" fill="white"/>
<path d="M63.2597 0.65625H58.4321V5.48384H63.2597V0.65625Z" fill="white"/>
<path d="M68.0898 0.65625H63.2622V5.48384H68.0898V0.65625Z" fill="white"/>
<path d="M82.5712 0.65625H77.7437V5.48384H82.5712V0.65625Z" fill="white"/>
<path d="M43.9501 5.48438H39.1226V10.312H43.9501V5.48438Z" fill="white"/>
<path d="M48.7783 5.48438H43.9507V10.312H48.7783V5.48438Z" fill="white"/>
<path d="M53.6064 5.48438H48.7788V10.312H53.6064V5.48438Z" fill="white"/>
<path d="M58.4335 5.48438H53.606V10.312H58.4335V5.48438Z" fill="white"/>
<path d="M68.0898 5.48438H63.2622V10.312H68.0898V5.48438Z" fill="white"/>
<path d="M82.5722 5.48438H77.7446V10.312H82.5722V5.48438Z" fill="white"/>
<path d="M53.6064 10.3127H48.7788V15.1403H53.6064V10.3127Z" fill="white"/>
<path d="M68.0898 10.3125H63.2622V15.1401H68.0898V10.3125Z" fill="white"/>
<path d="M72.9169 10.3127H68.0894V15.1403H72.9169V10.3127Z" fill="white"/>
<path d="M43.9501 15.1406H39.1226V19.9682H43.9501V15.1406Z" fill="white"/>
<path d="M48.7783 15.1406H43.9507V19.9682H48.7783V15.1406Z" fill="white"/>
<path d="M53.6064 15.1406H48.7788V19.9682H53.6064V15.1406Z" fill="white"/>
<path d="M63.2597 15.1406H58.4321V19.9682H63.2597V15.1406Z" fill="white"/>
<path d="M68.0898 15.1406H63.2622V19.9682H68.0898V15.1406Z" fill="white"/>
<path d="M72.9169 15.1406H68.0894V19.9682H72.9169V15.1406Z" fill="white"/>
<path d="M77.7441 19.9648H72.9165V24.7924H77.7441V19.9648Z" fill="white"/>
<path d="M82.5712 19.9648H77.7437V24.7924H82.5712V19.9648Z" fill="white"/>
<path d="M43.9501 29.625H39.1226V34.4526H43.9501V29.625Z" fill="white"/>
<path d="M53.6064 29.6248H48.7788V34.4523H53.6064V29.6248Z" fill="white"/>
<path d="M63.2597 29.625H58.4321V34.4526H63.2597V29.625Z" fill="white"/>
<path d="M72.9169 29.6248H68.0894V34.4523H72.9169V29.6248Z" fill="white"/>
<path d="M82.5712 29.625H77.7437V34.4526H82.5712V29.625Z" fill="white"/>
<path d="M43.9501 34.4453H39.1226V39.2729H43.9501V34.4453Z" fill="white"/>
<path d="M63.2597 34.4453H58.4321V39.2729H63.2597V34.4453Z" fill="white"/>
<path d="M5.33198 39.2773H0.504395V44.1049H5.33198V39.2773Z" fill="white"/>
<path d="M14.9843 39.2773H10.1567V44.1049H14.9843V39.2773Z" fill="white"/>
<path d="M19.8134 39.2773H14.9858V44.1049H19.8134V39.2773Z" fill="white"/>
<path d="M29.4677 39.2773H24.6401V44.1049H29.4677V39.2773Z" fill="white"/>
<path d="M34.2949 39.2773H29.4673V44.1049H34.2949V39.2773Z" fill="white"/>
<path d="M39.123 39.2773H34.2954V44.1049H39.123V39.2773Z" fill="white"/>
<path d="M48.7783 39.2773H43.9507V44.1049H48.7783V39.2773Z" fill="white"/>
<path d="M63.2597 39.2773H58.4321V44.1049H63.2597V39.2773Z" fill="white"/>
<path d="M82.5712 39.2773H77.7437V44.1049H82.5712V39.2773Z" fill="white"/>
<path d="M92.2275 39.2773H87.3999V44.1049H92.2275V39.2773Z" fill="white"/>
<path d="M106.71 39.2773H101.882V44.1049H106.71V39.2773Z" fill="white"/>
<path d="M116.366 39.2773H111.539V44.1049H116.366V39.2773Z" fill="white"/>
<path d="M121.192 39.2773H116.365V44.1049H121.192V39.2773Z" fill="white"/>
<path d="M5.33198 44.1133H0.504395V48.9409H5.33198V44.1133Z" fill="white"/>
<path d="M10.1591 44.1133H5.33154V48.9409H10.1591V44.1133Z" fill="white"/>
<path d="M43.9501 44.1133H39.1226V48.9409H43.9501V44.1133Z" fill="white"/>
<path d="M68.0898 44.1133H63.2622V48.9409H68.0898V44.1133Z" fill="white"/>
<path d="M82.5712 44.1133H77.7437V48.9409H82.5712V44.1133Z" fill="white"/>
<path d="M87.3994 44.1133H82.5718V48.9409H87.3994V44.1133Z" fill="white"/>
<path d="M97.0556 44.1133H92.228V48.9409H97.0556V44.1133Z" fill="white"/>
<path d="M116.366 44.1133H111.539V48.9409H116.366V44.1133Z" fill="white"/>
<path d="M14.9843 48.9336H10.1567V53.7612H14.9843V48.9336Z" fill="white"/>
<path d="M19.8134 48.9336H14.9858V53.7612H19.8134V48.9336Z" fill="white"/>
<path d="M24.6396 48.9336H19.812V53.7612H24.6396V48.9336Z" fill="white"/>
<path d="M34.2949 48.9336H29.4673V53.7612H34.2949V48.9336Z" fill="white"/>
<path d="M43.9501 48.9336H39.1226V53.7612H43.9501V48.9336Z" fill="white"/>
<path d="M53.6064 48.9336H48.7788V53.7612H53.6064V48.9336Z" fill="white"/>
<path d="M68.0898 48.9336H63.2622V53.7612H68.0898V48.9336Z" fill="white"/>
<path d="M82.5712 48.9336H77.7437V53.7612H82.5712V48.9336Z" fill="white"/>
<path d="M87.3994 48.9336H82.5718V53.7612H87.3994V48.9336Z" fill="white"/>
<path d="M97.0556 48.9336H92.228V53.7612H97.0556V48.9336Z" fill="white"/>
<path d="M101.881 48.9336H97.0532V53.7612H101.881V48.9336Z" fill="white"/>
<path d="M5.33198 53.7695H0.504395V58.5971H5.33198V53.7695Z" fill="white"/>
<path d="M14.9843 53.7695H10.1567V58.5971H14.9843V53.7695Z" fill="white"/>
<path d="M29.4677 53.7695H24.6401V58.5971H29.4677V53.7695Z" fill="white"/>
<path d="M39.123 53.7695H34.2954V58.5971H39.123V53.7695Z" fill="white"/>
<path d="M58.4335 53.7695H53.606V58.5971H58.4335V53.7695Z" fill="white"/>
<path d="M68.0898 53.7695H63.2622V58.5971H68.0898V53.7695Z" fill="white"/>
<path d="M77.7441 53.7695H72.9165V58.5971H77.7441V53.7695Z" fill="white"/>
<path d="M82.5712 53.7695H77.7437V58.5971H82.5712V53.7695Z" fill="white"/>
<path d="M97.0556 53.7695H92.228V58.5971H97.0556V53.7695Z" fill="white"/>
<path d="M106.71 53.7695H101.882V58.5971H106.71V53.7695Z" fill="white"/>
<path d="M111.537 53.7695H106.709V58.5971H111.537V53.7695Z" fill="white"/>
<path d="M10.1591 58.6016H5.33154V63.4291H10.1591V58.6016Z" fill="white"/>
<path d="M14.9843 58.6016H10.1567V63.4291H14.9843V58.6016Z" fill="white"/>
<path d="M19.8134 58.6016H14.9858V63.4291H19.8134V58.6016Z" fill="white"/>
<path d="M34.2949 58.6016H29.4673V63.4291H34.2949V58.6016Z" fill="white"/>
<path d="M43.9501 58.6016H39.1226V63.4291H43.9501V58.6016Z" fill="white"/>
<path d="M48.7783 58.6016H43.9507V63.4291H48.7783V58.6016Z" fill="white"/>
<path d="M63.2597 58.6016H58.4321V63.4291H63.2597V58.6016Z" fill="white"/>
<path d="M68.0898 58.6016H63.2622V63.4291H68.0898V58.6016Z" fill="white"/>
<path d="M72.9169 58.6016H68.0894V63.4291H72.9169V58.6016Z" fill="white"/>
<path d="M77.7441 58.6016H72.9165V63.4291H77.7441V58.6016Z" fill="white"/>
<path d="M87.3994 58.6016H82.5718V63.4291H87.3994V58.6016Z" fill="white"/>
<path d="M92.2265 58.6016H87.3989V63.4291H92.2265V58.6016Z" fill="white"/>
<path d="M101.881 58.6016H97.0532V63.4291H101.881V58.6016Z" fill="white"/>
<path d="M111.537 58.6016H106.709V63.4291H111.537V58.6016Z" fill="white"/>
<path d="M116.366 58.6016H111.539V63.4291H116.366V58.6016Z" fill="white"/>
<path d="M121.191 58.6016H116.364V63.4291H121.191V58.6016Z" fill="white"/>
<path d="M10.1591 63.4102H5.33154V68.2377H10.1591V63.4102Z" fill="white"/>
<path d="M19.8134 63.4102H14.9858V68.2377H19.8134V63.4102Z" fill="white"/>
<path d="M29.4677 63.4102H24.6401V68.2377H29.4677V63.4102Z" fill="white"/>
<path d="M39.123 63.4102H34.2954V68.2377H39.123V63.4102Z" fill="white"/>
<path d="M48.7783 63.4102H43.9507V68.2377H48.7783V63.4102Z" fill="white"/>
<path d="M58.4335 63.4102H53.606V68.2377H58.4335V63.4102Z" fill="white"/>
<path d="M63.2597 63.4102H58.4321V68.2377H63.2597V63.4102Z" fill="white"/>
<path d="M77.7431 63.4102H72.9155V68.2377H77.7431V63.4102Z" fill="white"/>
<path d="M82.5712 63.4102H77.7437V68.2377H82.5712V63.4102Z" fill="white"/>
<path d="M92.2275 63.4102H87.3999V68.2377H92.2275V63.4102Z" fill="white"/>
<path d="M97.0546 63.4102H92.2271V68.2377H97.0546V63.4102Z" fill="white"/>
<path d="M101.882 63.4102H97.0542V68.2377H101.882V63.4102Z" fill="white"/>
<path d="M121.192 63.4102H116.365V68.2377H121.192V63.4102Z" fill="white"/>
<path d="M10.1591 68.2422H5.33154V73.0698H10.1591V68.2422Z" fill="white"/>
<path d="M14.9843 68.2422H10.1567V73.0698H14.9843V68.2422Z" fill="white"/>
<path d="M19.8144 68.2422H14.9868V73.0698H19.8144V68.2422Z" fill="white"/>
<path d="M24.6396 68.2422H19.812V73.0698H24.6396V68.2422Z" fill="white"/>
<path d="M34.2949 68.2422H29.4673V73.0698H34.2949V68.2422Z" fill="white"/>
<path d="M43.9501 68.2422H39.1226V73.0698H43.9501V68.2422Z" fill="white"/>
<path d="M53.6064 68.2422H48.7788V73.0698H53.6064V68.2422Z" fill="white"/>
<path d="M58.4335 68.2422H53.606V73.0698H58.4335V68.2422Z" fill="white"/>
<path d="M72.9169 68.2422H68.0894V73.0698H72.9169V68.2422Z" fill="white"/>
<path d="M101.882 68.2422H97.0542V73.0698H101.882V68.2422Z" fill="white"/>
<path d="M111.537 68.2422H106.709V73.0698H111.537V68.2422Z" fill="white"/>
<path d="M116.366 68.2422H111.539V73.0698H116.366V68.2422Z" fill="white"/>
<path d="M5.33198 73.0703H0.504395V77.8979H5.33198V73.0703Z" fill="white"/>
<path d="M39.123 73.0703H34.2954V77.8979H39.123V73.0703Z" fill="white"/>
<path d="M58.4335 73.0703H53.606V77.8979H58.4335V73.0703Z" fill="white"/>
<path d="M82.5712 73.0703H77.7437V77.8979H82.5712V73.0703Z" fill="white"/>
<path d="M92.2265 73.0703H87.3989V77.8979H92.2265V73.0703Z" fill="white"/>
<path d="M97.0556 73.0703H92.228V77.8979H97.0556V73.0703Z" fill="white"/>
<path d="M101.881 73.0703H97.0532V77.8979H101.881V73.0703Z" fill="white"/>
<path d="M121.191 73.0703H116.364V77.8979H121.191V73.0703Z" fill="white"/>
<path d="M19.8134 77.8945H14.9858V82.7221H19.8134V77.8945Z" fill="white"/>
<path d="M34.2949 77.8945H29.4673V82.7221H34.2949V77.8945Z" fill="white"/>
<path d="M53.6064 77.8945H48.7788V82.7221H53.6064V77.8945Z" fill="white"/>
<path d="M63.2597 77.8945H58.4321V82.7221H63.2597V77.8945Z" fill="white"/>
<path d="M68.0898 77.8945H63.2622V82.7221H68.0898V77.8945Z" fill="white"/>
<path d="M77.7431 77.8945H72.9155V82.7221H77.7431V77.8945Z" fill="white"/>
<path d="M82.5712 77.8945H77.7437V82.7221H82.5712V77.8945Z" fill="white"/>
<path d="M87.3994 77.8945H82.5718V82.7221H87.3994V77.8945Z" fill="white"/>
<path d="M92.2275 77.8945H87.3999V82.7221H92.2275V77.8945Z" fill="white"/>
<path d="M97.0546 77.8945H92.2271V82.7221H97.0546V77.8945Z" fill="white"/>
<path d="M101.882 77.8945H97.0542V82.7221H101.882V77.8945Z" fill="white"/>
<path d="M106.71 77.8945H101.882V82.7221H106.71V77.8945Z" fill="white"/>
<path d="M111.538 77.8945H106.71V82.7221H111.538V77.8945Z" fill="white"/>
<path d="M116.366 77.8945H111.539V82.7221H116.366V77.8945Z" fill="white"/>
<path d="M121.192 77.8945H116.365V82.7221H121.192V77.8945Z" fill="white"/>
<path d="M43.9501 82.7305H39.1226V87.5581H43.9501V82.7305Z" fill="white"/>
<path d="M48.7783 82.7305H43.9507V87.5581H48.7783V82.7305Z" fill="white"/>
<path d="M53.6064 82.7305H48.7788V87.5581H53.6064V82.7305Z" fill="white"/>
<path d="M82.5722 82.7305H77.7446V87.5581H82.5722V82.7305Z" fill="white"/>
<path d="M101.882 82.7305H97.0542V87.5581H101.882V82.7305Z" fill="white"/>
<path d="M111.537 82.7305H106.709V87.5581H111.537V82.7305Z" fill="white"/>
<path d="M121.192 82.7305H116.365V87.5581H121.192V82.7305Z" fill="white"/>
<path d="M43.9501 87.5586H39.1226V92.3862H43.9501V87.5586Z" fill="white"/>
<path d="M53.6064 87.5588H48.7788V92.3864H53.6064V87.5588Z" fill="white"/>
<path d="M68.0898 87.5586H63.2622V92.3862H68.0898V87.5586Z" fill="white"/>
<path d="M72.9169 87.5588H68.0894V92.3864H72.9169V87.5588Z" fill="white"/>
<path d="M82.5712 87.5586H77.7437V92.3862H82.5712V87.5586Z" fill="white"/>
<path d="M92.2265 87.5588H87.3989V92.3864H92.2265V87.5588Z" fill="white"/>
<path d="M101.881 87.5586H97.0532V92.3862H101.881V87.5586Z" fill="white"/>
<path d="M111.537 87.5586H106.709V92.3862H111.537V87.5586Z" fill="white"/>
<path d="M116.366 87.5586H111.539V92.3862H116.366V87.5586Z" fill="white"/>
<path d="M121.191 87.5588H116.364V92.3864H121.191V87.5588Z" fill="white"/>
<path d="M43.9501 92.3789H39.1226V97.2065H43.9501V92.3789Z" fill="white"/>
<path d="M58.4335 92.3787H53.606V97.2062H58.4335V92.3787Z" fill="white"/>
<path d="M72.9169 92.3787H68.0894V97.2062H72.9169V92.3787Z" fill="white"/>
<path d="M77.7441 92.3787H72.9165V97.2062H77.7441V92.3787Z" fill="white"/>
<path d="M82.5712 92.3789H77.7437V97.2065H82.5712V92.3789Z" fill="white"/>
<path d="M101.881 92.3789H97.0532V97.2065H101.881V92.3789Z" fill="white"/>
<path d="M121.191 92.3787H116.364V97.2062H121.191V92.3787Z" fill="white"/>
<path d="M48.7783 97.2031H43.9507V102.031H48.7783V97.2031Z" fill="white"/>
<path d="M82.5712 97.2031H77.7437V102.031H82.5712V97.2031Z" fill="white"/>
<path d="M87.3994 97.2031H82.5718V102.031H87.3994V97.2031Z" fill="white"/>
<path d="M92.2265 97.2031H87.3989V102.031H92.2265V97.2031Z" fill="white"/>
<path d="M97.0556 97.2031H92.228V102.031H97.0556V97.2031Z" fill="white"/>
<path d="M101.881 97.2031H97.0532V102.031H101.881V97.2031Z" fill="white"/>
<path d="M106.71 97.2031H101.882V102.031H106.71V97.2031Z" fill="white"/>
<path d="M116.366 97.2031H111.539V102.031H116.366V97.2031Z" fill="white"/>
<path d="M43.9501 102.039H39.1226V106.867H43.9501V102.039Z" fill="white"/>
<path d="M53.6064 102.039H48.7788V106.867H53.6064V102.039Z" fill="white"/>
<path d="M68.0898 102.039H63.2622V106.867H68.0898V102.039Z" fill="white"/>
<path d="M77.7431 102.039H72.9155V106.867H77.7431V102.039Z" fill="white"/>
<path d="M92.2275 102.039H87.3999V106.867H92.2275V102.039Z" fill="white"/>
<path d="M101.882 102.039H97.0542V106.867H101.882V102.039Z" fill="white"/>
<path d="M106.711 102.039H101.883V106.867H106.711V102.039Z" fill="white"/>
<path d="M111.538 102.039H106.71V106.867H111.538V102.039Z" fill="white"/>
<path d="M116.365 102.039H111.538V106.867H116.365V102.039Z" fill="white"/>
<path d="M121.192 102.039H116.365V106.867H121.192V102.039Z" fill="white"/>
<path d="M43.9501 106.863H39.1226V111.691H43.9501V106.863Z" fill="white"/>
<path d="M48.7783 106.863H43.9507V111.691H48.7783V106.863Z" fill="white"/>
<path d="M68.0898 106.863H63.2622V111.691H68.0898V106.863Z" fill="white"/>
<path d="M77.7441 106.863H72.9165V111.691H77.7441V106.863Z" fill="white"/>
<path d="M82.5712 106.863H77.7437V111.691H82.5712V106.863Z" fill="white"/>
<path d="M87.3994 106.863H82.5718V111.691H87.3994V106.863Z" fill="white"/>
<path d="M92.2265 106.863H87.3989V111.691H92.2265V106.863Z" fill="white"/>
<path d="M101.881 106.863H97.0532V111.691H101.881V106.863Z" fill="white"/>
<path d="M111.537 106.863H106.709V111.691H111.537V106.863Z" fill="white"/>
<path d="M116.366 106.863H111.539V111.691H116.366V106.863Z" fill="white"/>
<path d="M58.4335 111.691H53.606V116.519H58.4335V111.691Z" fill="white"/>
<path d="M63.2597 111.691H58.4321V116.519H63.2597V111.691Z" fill="white"/>
<path d="M68.0898 111.691H63.2622V116.519H68.0898V111.691Z" fill="white"/>
<path d="M72.9169 111.691H68.0894V116.519H72.9169V111.691Z" fill="white"/>
<path d="M87.3994 111.691H82.5718V116.519H87.3994V111.691Z" fill="white"/>
<path d="M92.2265 111.691H87.3989V116.519H92.2265V111.691Z" fill="white"/>
<path d="M101.881 111.691H97.0532V116.519H101.881V111.691Z" fill="white"/>
<path d="M111.537 111.691H106.709V116.519H111.537V111.691Z" fill="white"/>
<path d="M43.9501 116.523H39.1226V121.351H43.9501V116.523Z" fill="white"/>
<path d="M48.7783 116.523H43.9507V121.351H48.7783V116.523Z" fill="white"/>
<path d="M58.4335 116.523H53.606V121.351H58.4335V116.523Z" fill="white"/>
<path d="M63.2597 116.523H58.4321V121.351H63.2597V116.523Z" fill="white"/>
<path d="M97.0546 116.523H92.2271V121.351H97.0546V116.523Z" fill="white"/>
<path d="M101.882 116.523H97.0542V121.351H101.882V116.523Z" fill="white"/>
<path d="M106.71 116.523H101.882V121.351H106.71V116.523Z" fill="white"/>
<path d="M111.538 116.523H106.71V121.351H111.538V116.523Z" fill="white"/>
<path d="M116.366 116.523H111.539V121.351H116.366V116.523Z" fill="white"/>
<path d="M121.192 116.523H116.365V121.351H121.192V116.523Z" fill="white"/>
<path d="M29.2285 0.65625H5.57336H0.504395V5.72522V29.3804V34.4494H5.57336H29.2285H34.2975V29.3804V5.72522V0.65625H29.2285ZM29.2285 29.3804H5.57336V5.72522H29.2285V29.3804Z" fill="white"/>
<path d="M116.124 0.65625H92.4689H87.3999V5.72522V29.3804V34.4494H92.4689H116.124H121.193V29.3804V5.72522V0.65625H116.124ZM116.124 29.3804H92.4689V5.72522H116.124V29.3804Z" fill="white"/>
<path d="M29.2285 87.5586H5.57336H0.504395V92.6276V116.283V121.352H5.57336H29.2285H34.2975V116.283V92.6276V87.5586H29.2285ZM29.2285 116.283H5.57336V92.6276H29.2285V116.283Z" fill="white"/>
<path d="M24.6395 10.3125H10.1567V24.7953H24.6395V10.3125Z" fill="white"/>
<path d="M111.536 10.3125H97.0532V24.7953H111.536V10.3125Z" fill="white"/>
<path d="M24.6395 97.2031H10.1567V111.686H24.6395V97.2031Z" fill="white"/>
</svg>
